<svg xmlns="http://www.w3.org/2000/svg" width="1200" height="720">
<rect x="0" y="0" width="100%" height="100%" fill="white"/>
<text x="600.0" y="28" text-anchor="middle" font-size="18" font-family="Arial">Pareto Search Convergence (HV)</text>
<line x1="80" y1="50" x2="80" y2="650" stroke="#000" stroke-width="1"/>
<line x1="80" y1="650" x2="1170" y2="650" stroke="#000" stroke-width="1"/>
<line x1="80.00" y1="650" x2="80.00" y2="656" stroke="#000" stroke-width="1"/>
<text x="80.00" y="674" text-anchor="middle" font-size="12" font-family="Arial">1</text>
<line x1="80.00" y1="50" x2="80.00" y2="650" stroke="#eee" stroke-width="1"/>
<line x1="298.00" y1="650" x2="298.00" y2="656" stroke="#000" stroke-width="1"/>
<text x="298.00" y="674" text-anchor="middle" font-size="12" font-family="Arial">201</text>
<line x1="298.00" y1="50" x2="298.00" y2="650" stroke="#eee" stroke-width="1"/>
<line x1="516.00" y1="650" x2="516.00" y2="656" stroke="#000" stroke-width="1"/>
<text x="516.00" y="674" text-anchor="middle" font-size="12" font-family="Arial">401</text>
<line x1="516.00" y1="50" x2="516.00" y2="650" stroke="#eee" stroke-width="1"/>
<line x1="734.00" y1="650" x2="734.00" y2="656" stroke="#000" stroke-width="1"/>
<text x="734.00" y="674" text-anchor="middle" font-size="12" font-family="Arial">600</text>
<line x1="734.00" y1="50" x2="734.00" y2="650" stroke="#eee" stroke-width="1"/>
<line x1="952.00" y1="650" x2="952.00" y2="656" stroke="#000" stroke-width="1"/>
<text x="952.00" y="674" text-anchor="middle" font-size="12" font-family="Arial">800</text>
<line x1="952.00" y1="50" x2="952.00" y2="650" stroke="#eee" stroke-width="1"/>
<line x1="1170.00" y1="650" x2="1170.00" y2="656" stroke="#000" stroke-width="1"/>
<text x="1170.00" y="674" text-anchor="middle" font-size="12" font-family="Arial">1000</text>
<line x1="1170.00" y1="50" x2="1170.00" y2="650" stroke="#eee" stroke-width="1"/>
<line x1="74" y1="650.00" x2="80" y2="650.00" stroke="#000" stroke-width="1"/>
<text x="70" y="654.00" text-anchor="end" font-size="12" font-family="Arial">0.000</text>
<line x1="80" y1="650.00" x2="1170" y2="650.00" stroke="#eee" stroke-width="1"/>
<line x1="74" y1="530.00" x2="80" y2="530.00" stroke="#000" stroke-width="1"/>
<text x="70" y="534.00" text-anchor="end" font-size="12" font-family="Arial">0.341</text>
<line x1="80" y1="530.00" x2="1170" y2="530.00" stroke="#eee" stroke-width="1"/>
<line x1="74" y1="410.00" x2="80" y2="410.00" stroke="#000" stroke-width="1"/>
<text x="70" y="414.00" text-anchor="end" font-size="12" font-family="Arial">0.681</text>
<line x1="80" y1="410.00" x2="1170" y2="410.00" stroke="#eee" stroke-width="1"/>
<line x1="74" y1="290.00" x2="80" y2="290.00" stroke="#000" stroke-width="1"/>
<text x="70" y="294.00" text-anchor="end" font-size="12" font-family="Arial">1.022</text>
<line x1="80" y1="290.00" x2="1170" y2="290.00" stroke="#eee" stroke-width="1"/>
<line x1="74" y1="170.00" x2="80" y2="170.00" stroke="#000" stroke-width="1"/>
<text x="70" y="174.00" text-anchor="end" font-size="12" font-family="Arial">1.362</text>
<line x1="80" y1="170.00" x2="1170" y2="170.00" stroke="#eee" stroke-width="1"/>
<line x1="74" y1="50.00" x2="80" y2="50.00" stroke="#000" stroke-width="1"/>
<text x="70" y="54.00" text-anchor="end" font-size="12" font-family="Arial">1.703</text>
<line x1="80" y1="50.00" x2="1170" y2="50.00" stroke="#eee" stroke-width="1"/>
<line x1="80" y1="50.85" x2="1170" y2="50.85" stroke="#333" stroke-dasharray="6,4" stroke-width="1"/>
<text x="1168" y="44.85" text-anchor="end" font-size="12" font-family="Arial">hv_ref=1.700</text>
<line x1="80" y1="80.80" x2="1170" y2="80.80" stroke="#666" stroke-dasharray="3,4" stroke-width="1"/>
<text x="1168" y="74.80" text-anchor="end" font-size="12" font-family="Arial">0.95·hv_ref</text>
<path d="M 80.00 90.79 L 81.09 90.79 L 82.18 190.68 L 83.27 172.23 L 84.36 172.48 L 85.46 179.21 L 86.55 82.19 L 87.64 57.44 L 88.73 57.44 L 89.82 57.44 L 90.91 55.19 L 92.00 55.19 L 93.09 55.19 L 94.18 55.19 L 95.28 54.88 L 96.37 54.88 L 97.46 54.88 L 98.55 54.88 L 99.64 55.52 L 100.73 55.52 L 101.82 55.52 L 102.91 55.52 L 104.00 55.52 L 105.10 55.52 L 106.19 55.52 L 107.28 55.52 L 108.37 55.52 L 109.46 55.52 L 110.55 56.39 L 111.64 56.39 L 112.73 56.39 L 113.82 56.39 L 114.91 56.39 L 116.01 56.39 L 117.10 54.72 L 118.19 54.72 L 119.28 54.72 L 120.37 54.72 L 121.46 54.72 L 122.55 54.72 L 123.64 54.72 L 124.73 54.72 L 125.83 54.72 L 126.92 54.72 L 128.01 54.72 L 129.10 54.72 L 130.19 54.72 L 131.28 54.72 L 132.37 54.72 L 133.46 54.72 L 134.55 54.72 L 135.65 54.93 L 136.74 54.93 L 137.83 54.93 L 138.92 54.93 L 140.01 54.93 L 141.10 54.93 L 142.19 54.93 L 143.28 54.93 L 144.37 54.93 L 145.47 54.93 L 146.56 54.93 L 147.65 54.93 L 148.74 54.93 L 149.83 54.92 L 150.92 54.92 L 152.01 54.92 L 153.10 54.92 L 154.19 54.92 L 155.29 54.92 L 156.38 54.92 L 157.47 54.92 L 158.56 54.92 L 159.65 54.53 L 160.74 54.53 L 161.83 54.53 L 162.92 54.53 L 164.01 54.53 L 165.11 54.53 L 166.20 54.53 L 167.29 54.53 L 168.38 54.53 L 169.47 54.53 L 170.56 54.53 L 171.65 54.53 L 172.74 54.53 L 173.83 54.53 L 174.92 54.53 L 176.02 54.53 L 177.11 54.53 L 178.20 54.48 L 179.29 54.48 L 180.38 54.48 L 181.47 54.48 L 182.56 54.48 L 183.65 54.48 L 184.74 54.48 L 185.84 54.48 L 186.93 54.48 L 188.02 54.48 L 189.11 54.48 L 190.20 54.48 L 191.29 54.48 L 192.38 54.48 L 193.47 54.48 L 194.56 54.48 L 195.66 54.48 L 196.75 54.48 L 197.84 54.48 L 198.93 54.48 L 200.02 54.48 L 201.11 54.48 L 202.20 59.19 L 203.29 59.19 L 204.38 59.19 L 205.48 59.19 L 206.57 59.19 L 207.66 59.19 L 208.75 59.19 L 209.84 59.19 L 210.93 59.19 L 212.02 59.19 L 213.11 59.19 L 214.20 59.19 L 215.30 59.19 L 216.39 59.19 L 217.48 59.19 L 218.57 59.19 L 219.66 59.19 L 220.75 59.19 L 221.84 59.42 L 222.93 59.42 L 224.02 59.42 L 225.12 59.42 L 226.21 59.42 L 227.30 59.42 L 228.39 59.42 L 229.48 59.47 L 230.57 59.47 L 231.66 59.47 L 232.75 59.47 L 233.84 59.47 L 234.93 59.47 L 236.03 59.47 L 237.12 59.47 L 238.21 59.47 L 239.30 59.47 L 240.39 59.47 L 241.48 59.47 L 242.57 59.47 L 243.66 59.47 L 244.75 59.47 L 245.85 59.47 L 246.94 59.47 L 248.03 59.47 L 249.12 59.47 L 250.21 59.47 L 251.30 59.48 L 252.39 59.48 L 253.48 59.48 L 254.57 59.48 L 255.67 59.48 L 256.76 59.48 L 257.85 59.48 L 258.94 59.48 L 260.03 59.48 L 261.12 59.48 L 262.21 59.48 L 263.30 59.48 L 264.39 59.48 L 265.49 59.48 L 266.58 59.48 L 267.67 59.48 L 268.76 59.48 L 269.85 59.48 L 270.94 59.48 L 272.03 59.48 L 273.12 59.48 L 274.21 59.48 L 275.31 59.48 L 276.40 59.48 L 277.49 59.48 L 278.58 59.48 L 279.67 59.48 L 280.76 59.48 L 281.85 59.48 L 282.94 59.48 L 284.03 59.48 L 285.13 59.48 L 286.22 59.48 L 287.31 61.27 L 288.40 61.27 L 289.49 61.27 L 290.58 61.27 L 291.67 61.27 L 292.76 61.27 L 293.85 61.27 L 294.94 61.27 L 296.04 61.27 L 297.13 61.27 L 298.22 61.27 L 299.31 61.27 L 300.40 61.27 L 301.49 61.27 L 302.58 61.27 L 303.67 61.27 L 304.76 61.27 L 305.86 61.27 L 306.95 61.27 L 308.04 61.27 L 309.13 61.27 L 310.22 61.27 L 311.31 61.27 L 312.40 61.27 L 313.49 61.27 L 314.58 61.27 L 315.68 61.27 L 316.77 61.27 L 317.86 61.27 L 318.95 61.27 L 320.04 61.27 L 321.13 61.27 L 322.22 61.27 L 323.31 61.27 L 324.40 61.27 L 325.50 61.27 L 326.59 61.27 L 327.68 61.27 L 328.77 61.27 L 329.86 61.27 L 330.95 61.27 L 332.04 61.27 L 333.13 61.27 L 334.22 61.27 L 335.32 61.27 L 336.41 61.27 L 337.50 61.27 L 338.59 61.27 L 339.68 61.00 L 340.77 61.00 L 341.86 61.00 L 342.95 61.00 L 344.04 61.00 L 345.14 61.00 L 346.23 61.00 L 347.32 61.00 L 348.41 61.00 L 349.50 61.00 L 350.59 61.00 L 351.68 61.00 L 352.77 61.00 L 353.86 61.00 L 354.95 61.00 L 356.05 61.00 L 357.14 61.00 L 358.23 61.00 L 359.32 61.00 L 360.41 61.00 L 361.50 61.00 L 362.59 61.00 L 363.68 61.00 L 364.77 61.00 L 365.87 61.00 L 366.96 61.00 L 368.05 61.00 L 369.14 61.00 L 370.23 61.00 L 371.32 61.00 L 372.41 61.00 L 373.50 61.01 L 374.59 61.01 L 375.69 61.01 L 376.78 61.01 L 377.87 61.01 L 378.96 61.01 L 380.05 61.01 L 381.14 61.01 L 382.23 56.66 L 383.32 56.66 L 384.41 56.66 L 385.51 56.66 L 386.60 56.66 L 387.69 56.66 L 388.78 56.66 L 389.87 56.66 L 390.96 56.66 L 392.05 55.97 L 393.14 55.97 L 394.23 55.97 L 395.33 55.97 L 396.42 55.97 L 397.51 55.97 L 398.60 55.97 L 399.69 55.97 L 400.78 55.97 L 401.87 55.97 L 402.96 55.97 L 404.05 55.97 L 405.15 55.97 L 406.24 55.97 L 407.33 55.97 L 408.42 55.97 L 409.51 55.97 L 410.60 55.97 L 411.69 55.97 L 412.78 55.97 L 413.87 55.97 L 414.96 55.97 L 416.06 55.97 L 417.15 55.97 L 418.24 55.97 L 419.33 55.97 L 420.42 55.97 L 421.51 55.97 L 422.60 55.97 L 423.69 55.97 L 424.78 55.97 L 425.88 55.97 L 426.97 55.97 L 428.06 55.97 L 429.15 55.97 L 430.24 55.97 L 431.33 55.97 L 432.42 55.97 L 433.51 55.97 L 434.60 55.97 L 435.70 55.97 L 436.79 55.97 L 437.88 55.97 L 438.97 55.97 L 440.06 55.97 L 441.15 55.97 L 442.24 55.97 L 443.33 55.97 L 444.42 55.97 L 445.52 55.97 L 446.61 56.15 L 447.70 56.15 L 448.79 56.15 L 449.88 56.15 L 450.97 56.15 L 452.06 56.15 L 453.15 56.15 L 454.24 56.15 L 455.34 56.15 L 456.43 56.15 L 457.52 56.15 L 458.61 56.15 L 459.70 56.15 L 460.79 56.15 L 461.88 56.15 L 462.97 56.15 L 464.06 56.15 L 465.16 56.15 L 466.25 56.15 L 467.34 56.15 L 468.43 56.15 L 469.52 56.15 L 470.61 56.15 L 471.70 56.15 L 472.79 56.15 L 473.88 56.15 L 474.97 56.15 L 476.07 56.15 L 477.16 56.15 L 478.25 56.15 L 479.34 56.15 L 480.43 56.15 L 481.52 56.15 L 482.61 56.15 L 483.70 56.15 L 484.79 53.11 L 485.89 53.11 L 486.98 53.11 L 488.07 53.11 L 489.16 53.11 L 490.25 53.11 L 491.34 53.11 L 492.43 53.11 L 493.52 53.11 L 494.61 53.11 L 495.71 53.11 L 496.80 53.11 L 497.89 53.11 L 498.98 53.11 L 500.07 53.11 L 501.16 53.11 L 502.25 53.11 L 503.34 53.11 L 504.43 53.11 L 505.53 53.13 L 506.62 53.13 L 507.71 53.13 L 508.80 53.13 L 509.89 53.13 L 510.98 53.13 L 512.07 53.13 L 513.16 53.13 L 514.25 53.13 L 515.35 53.13 L 516.44 53.13 L 517.53 53.13 L 518.62 53.13 L 519.71 53.13 L 520.80 53.13 L 521.89 53.13 L 522.98 53.13 L 524.07 53.13 L 525.17 53.13 L 526.26 53.13 L 527.35 53.13 L 528.44 53.13 L 529.53 53.13 L 530.62 53.13 L 531.71 53.13 L 532.80 53.13 L 533.89 53.13 L 534.98 53.13 L 536.08 53.13 L 537.17 53.13 L 538.26 53.13 L 539.35 53.13 L 540.44 53.13 L 541.53 53.13 L 542.62 53.13 L 543.71 53.13 L 544.80 53.13 L 545.90 53.13 L 546.99 53.13 L 548.08 53.13 L 549.17 53.13 L 550.26 53.13 L 551.35 53.13 L 552.44 53.13 L 553.53 53.13 L 554.62 53.13 L 555.72 53.13 L 556.81 53.13 L 557.90 53.13 L 558.99 53.13 L 560.08 53.13 L 561.17 53.13 L 562.26 53.13 L 563.35 53.13 L 564.44 53.13 L 565.54 53.13 L 566.63 53.13 L 567.72 53.13 L 568.81 53.13 L 569.90 53.13 L 570.99 53.13 L 572.08 53.13 L 573.17 53.13 L 574.26 53.13 L 575.36 53.13 L 576.45 53.13 L 577.54 53.13 L 578.63 53.13 L 579.72 53.13 L 580.81 53.13 L 581.90 53.13 L 582.99 53.13 L 584.08 53.13 L 585.18 53.13 L 586.27 53.13 L 587.36 53.13 L 588.45 52.29 L 589.54 52.29 L 590.63 52.29 L 591.72 52.29 L 592.81 52.29 L 593.90 52.29 L 594.99 52.29 L 596.09 52.29 L 597.18 52.29 L 598.27 52.29 L 599.36 52.29 L 600.45 52.29 L 601.54 52.29 L 602.63 52.29 L 603.72 52.29 L 604.81 52.29 L 605.91 52.29 L 607.00 52.29 L 608.09 52.29 L 609.18 52.29 L 610.27 52.29 L 611.36 52.29 L 612.45 52.29 L 613.54 52.29 L 614.63 52.29 L 615.73 52.29 L 616.82 52.29 L 617.91 52.29 L 619.00 52.29 L 620.09 52.29 L 621.18 52.29 L 622.27 52.29 L 623.36 52.29 L 624.45 52.29 L 625.55 52.29 L 626.64 52.29 L 627.73 52.29 L 628.82 52.29 L 629.91 52.27 L 631.00 52.27 L 632.09 52.27 L 633.18 52.27 L 634.27 52.27 L 635.37 52.27 L 636.46 52.27 L 637.55 52.27 L 638.64 52.27 L 639.73 52.27 L 640.82 52.27 L 641.91 52.27 L 643.00 52.27 L 644.09 52.27 L 645.19 52.27 L 646.28 52.27 L 647.37 52.27 L 648.46 52.27 L 649.55 52.27 L 650.64 52.28 L 651.73 52.28 L 652.82 52.28 L 653.91 52.28 L 655.01 52.28 L 656.10 52.28 L 657.19 52.28 L 658.28 52.28 L 659.37 52.28 L 660.46 52.28 L 661.55 52.28 L 662.64 52.28 L 663.73 52.28 L 664.82 52.28 L 665.92 52.28 L 667.01 52.28 L 668.10 52.28 L 669.19 52.28 L 670.28 52.28 L 671.37 52.28 L 672.46 52.28 L 673.55 52.28 L 674.64 52.28 L 675.74 52.28 L 676.83 52.28 L 677.92 52.28 L 679.01 52.28 L 680.10 52.28 L 681.19 52.28 L 682.28 52.28 L 683.37 52.28 L 684.46 52.28 L 685.56 52.28 L 686.65 52.28 L 687.74 52.28 L 688.83 52.28 L 689.92 52.28 L 691.01 52.28 L 692.10 52.28 L 693.19 52.28 L 694.28 52.28 L 695.38 52.28 L 696.47 52.28 L 697.56 52.28 L 698.65 52.28 L 699.74 52.28 L 700.83 52.28 L 701.92 52.28 L 703.01 52.28 L 704.10 52.28 L 705.20 52.28 L 706.29 52.28 L 707.38 52.28 L 708.47 52.28 L 709.56 52.28 L 710.65 52.28 L 711.74 52.28 L 712.83 52.28 L 713.92 52.28 L 715.02 52.28 L 716.11 52.28 L 717.20 52.28 L 718.29 52.28 L 719.38 52.28 L 720.47 52.28 L 721.56 52.28 L 722.65 52.28 L 723.74 52.28 L 724.83 52.28 L 725.93 52.28 L 727.02 52.28 L 728.11 52.28 L 729.20 52.28 L 730.29 52.28 L 731.38 52.28 L 732.47 52.28 L 733.56 52.28 L 734.65 52.28 L 735.75 52.28 L 736.84 52.28 L 737.93 52.28 L 739.02 52.28 L 740.11 52.28 L 741.20 52.28 L 742.29 52.28 L 743.38 52.28 L 744.47 52.28 L 745.57 52.28 L 746.66 52.28 L 747.75 52.28 L 748.84 52.28 L 749.93 52.28 L 751.02 52.28 L 752.11 52.28 L 753.20 52.28 L 754.29 52.28 L 755.39 52.28 L 756.48 52.28 L 757.57 52.28 L 758.66 52.28 L 759.75 52.28 L 760.84 52.28 L 761.93 52.28 L 763.02 52.28 L 764.11 52.28 L 765.21 52.28 L 766.30 52.28 L 767.39 52.28 L 768.48 52.28 L 769.57 52.28 L 770.66 51.96 L 771.75 51.96 L 772.84 51.96 L 773.93 51.97 L 775.03 51.97 L 776.12 51.97 L 777.21 51.97 L 778.30 51.97 L 779.39 51.97 L 780.48 51.97 L 781.57 51.97 L 782.66 51.97 L 783.75 51.97 L 784.84 51.97 L 785.94 51.97 L 787.03 51.97 L 788.12 51.97 L 789.21 51.97 L 790.30 51.97 L 791.39 51.97 L 792.48 51.97 L 793.57 51.97 L 794.66 51.97 L 795.76 51.97 L 796.85 51.97 L 797.94 51.97 L 799.03 51.97 L 800.12 51.97 L 801.21 51.97 L 802.30 51.97 L 803.39 51.97 L 804.48 51.97 L 805.58 51.97 L 806.67 51.97 L 807.76 51.97 L 808.85 51.97 L 809.94 51.97 L 811.03 51.97 L 812.12 51.97 L 813.21 51.97 L 814.30 51.97 L 815.40 51.97 L 816.49 51.97 L 817.58 51.97 L 818.67 51.97 L 819.76 51.97 L 820.85 51.97 L 821.94 51.91 L 823.03 51.91 L 824.12 51.91 L 825.22 51.91 L 826.31 51.91 L 827.40 51.91 L 828.49 51.91 L 829.58 51.91 L 830.67 51.91 L 831.76 51.91 L 832.85 51.91 L 833.94 51.91 L 835.04 51.91 L 836.13 51.91 L 837.22 51.91 L 838.31 51.91 L 839.40 51.91 L 840.49 51.91 L 841.58 51.91 L 842.67 51.91 L 843.76 51.91 L 844.85 51.91 L 845.95 51.91 L 847.04 51.91 L 848.13 51.91 L 849.22 51.91 L 850.31 51.91 L 851.40 51.91 L 852.49 51.91 L 853.58 51.91 L 854.67 51.91 L 855.77 51.91 L 856.86 51.91 L 857.95 51.91 L 859.04 51.91 L 860.13 50.00 L 861.22 50.00 L 862.31 50.00 L 863.40 50.00 L 864.49 50.00 L 865.59 50.00 L 866.68 50.00 L 867.77 50.00 L 868.86 50.00 L 869.95 50.00 L 871.04 50.00 L 872.13 50.00 L 873.22 50.00 L 874.31 50.00 L 875.41 50.00 L 876.50 50.00 L 877.59 50.00 L 878.68 50.00 L 879.77 50.00 L 880.86 50.00 L 881.95 50.00 L 883.04 50.00 L 884.13 50.00 L 885.23 50.00 L 886.32 50.00 L 887.41 50.00 L 888.50 50.00 L 889.59 50.00 L 890.68 50.00 L 891.77 50.00 L 892.86 50.00 L 893.95 50.00 L 895.05 50.00 L 896.14 50.00 L 897.23 50.00 L 898.32 50.00 L 899.41 50.00 L 900.50 50.00 L 901.59 50.00 L 902.68 50.00 L 903.77 50.00 L 904.86 50.00 L 905.96 50.00 L 907.05 50.00 L 908.14 50.00 L 909.23 50.00 L 910.32 50.00 L 911.41 50.00 L 912.50 50.00 L 913.59 50.00 L 914.68 50.00 L 915.78 50.00 L 916.87 50.00 L 917.96 50.00 L 919.05 50.00 L 920.14 50.00 L 921.23 50.00 L 922.32 50.00 L 923.41 50.00 L 924.50 50.00 L 925.60 50.00 L 926.69 50.00 L 927.78 50.00 L 928.87 50.00 L 929.96 50.00 L 931.05 50.00 L 932.14 50.00 L 933.23 50.00 L 934.32 50.00 L 935.42 50.00 L 936.51 50.00 L 937.60 50.00 L 938.69 50.00 L 939.78 50.00 L 940.87 50.00 L 941.96 50.00 L 943.05 50.00 L 944.14 50.00 L 945.24 50.00 L 946.33 50.00 L 947.42 50.00 L 948.51 50.00 L 949.60 50.00 L 950.69 50.00 L 951.78 50.00 L 952.87 50.00 L 953.96 50.00 L 955.06 50.00 L 956.15 50.00 L 957.24 50.00 L 958.33 50.00 L 959.42 50.00 L 960.51 50.00 L 961.60 50.00 L 962.69 50.00 L 963.78 50.00 L 964.87 50.00 L 965.97 50.00 L 967.06 50.00 L 968.15 50.00 L 969.24 50.00 L 970.33 50.00 L 971.42 50.00 L 972.51 50.00 L 973.60 50.00 L 974.69 50.00 L 975.79 50.00 L 976.88 50.00 L 977.97 50.00 L 979.06 50.00 L 980.15 50.00 L 981.24 50.00 L 982.33 50.00 L 983.42 50.00 L 984.51 50.00 L 985.61 50.00 L 986.70 50.00 L 987.79 50.00 L 988.88 50.00 L 989.97 50.00 L 991.06 50.00 L 992.15 50.00 L 993.24 50.00 L 994.33 50.00 L 995.43 50.00 L 996.52 50.00 L 997.61 50.00 L 998.70 50.00 L 999.79 50.00 L 1000.88 50.00 L 1001.97 50.00 L 1003.06 50.00 L 1004.15 50.00 L 1005.25 50.00 L 1006.34 50.00 L 1007.43 50.00 L 1008.52 50.00 L 1009.61 50.00 L 1010.70 50.00 L 1011.79 50.00 L 1012.88 50.00 L 1013.97 50.00 L 1015.07 50.00 L 1016.16 50.00 L 1017.25 50.00 L 1018.34 50.00 L 1019.43 50.00 L 1020.52 50.00 L 1021.61 50.00 L 1022.70 50.00 L 1023.79 50.00 L 1024.88 50.00 L 1025.98 50.00 L 1027.07 50.00 L 1028.16 50.00 L 1029.25 50.00 L 1030.34 50.00 L 1031.43 50.00 L 1032.52 50.00 L 1033.61 50.00 L 1034.70 50.00 L 1035.80 50.00 L 1036.89 50.00 L 1037.98 50.00 L 1039.07 50.00 L 1040.16 50.00 L 1041.25 50.00 L 1042.34 50.00 L 1043.43 50.00 L 1044.52 50.00 L 1045.62 50.00 L 1046.71 50.00 L 1047.80 50.00 L 1048.89 50.00 L 1049.98 50.00 L 1051.07 50.00 L 1052.16 50.00 L 1053.25 50.00 L 1054.34 50.00 L 1055.44 50.00 L 1056.53 50.00 L 1057.62 50.00 L 1058.71 50.00 L 1059.80 50.00 L 1060.89 50.00 L 1061.98 50.00 L 1063.07 50.00 L 1064.16 50.00 L 1065.26 50.00 L 1066.35 50.00 L 1067.44 50.00 L 1068.53 50.00 L 1069.62 50.00 L 1070.71 50.00 L 1071.80 50.00 L 1072.89 50.00 L 1073.98 50.00 L 1075.08 50.00 L 1076.17 50.00 L 1077.26 50.00 L 1078.35 50.00 L 1079.44 50.00 L 1080.53 50.00 L 1081.62 50.00 L 1082.71 50.00 L 1083.80 50.00 L 1084.89 50.00 L 1085.99 50.00 L 1087.08 50.00 L 1088.17 50.00 L 1089.26 50.00 L 1090.35 50.00 L 1091.44 50.00 L 1092.53 50.00 L 1093.62 50.00 L 1094.71 50.00 L 1095.81 50.00 L 1096.90 50.00 L 1097.99 50.00 L 1099.08 50.00 L 1100.17 50.00 L 1101.26 50.00 L 1102.35 50.00 L 1103.44 50.00 L 1104.53 50.00 L 1105.63 50.61 L 1106.72 50.61 L 1107.81 50.61 L 1108.90 50.61 L 1109.99 50.61 L 1111.08 50.61 L 1112.17 50.61 L 1113.26 50.61 L 1114.35 50.61 L 1115.45 50.61 L 1116.54 50.61 L 1117.63 50.61 L 1118.72 50.61 L 1119.81 50.61 L 1120.90 50.61 L 1121.99 50.61 L 1123.08 50.61 L 1124.17 50.61 L 1125.27 50.61 L 1126.36 50.61 L 1127.45 50.61 L 1128.54 50.61 L 1129.63 50.61 L 1130.72 50.61 L 1131.81 50.61 L 1132.90 50.61 L 1133.99 50.61 L 1135.09 50.61 L 1136.18 50.61 L 1137.27 50.61 L 1138.36 50.61 L 1139.45 50.61 L 1140.54 50.61 L 1141.63 50.61 L 1142.72 50.61 L 1143.81 50.61 L 1144.90 50.61 L 1146.00 50.61 L 1147.09 50.61 L 1148.18 50.61 L 1149.27 50.61 L 1150.36 50.61 L 1151.45 50.61 L 1152.54 50.61 L 1153.63 50.61 L 1154.72 50.61 L 1155.82 50.61 L 1156.91 50.61 L 1158.00 50.61 L 1159.09 50.61 L 1160.18 50.61 L 1161.27 50.61 L 1162.36 50.61 L 1163.45 50.61 L 1164.54 50.61 L 1165.64 50.61 L 1166.73 50.61 L 1167.82 50.61 L 1168.91 50.61 L 1170.00 50.61" fill="none" stroke="#1f77b4" stroke-width="2"/>
<rect x="90" y="50" width="14" height="3" fill="#1f77b4"/>
<text x="110" y="53" font-size="12" font-family="Arial">random</text>
<text x="625.0" y="696" text-anchor="middle" font-size="14" font-family="Arial">Samples</text>
<text x="18" y="350.0" text-anchor="middle" font-size="14" font-family="Arial" transform="rotate(-90 18 350.0)">Hypervolume</text>
</svg>