<svg xmlns="http://www.w3.org/2000/svg" width="1200" height="720">
<rect x="0" y="0" width="100%" height="100%" fill="white"/>
<text x="600.0" y="28" text-anchor="middle" font-size="18" font-family="Arial">Pareto Search Convergence (HV)</text>
<line x1="80" y1="50" x2="80" y2="650" stroke="#000" stroke-width="1"/>
<line x1="80" y1="650" x2="1170" y2="650" stroke="#000" stroke-width="1"/>
<line x1="80.00" y1="650" x2="80.00" y2="656" stroke="#000" stroke-width="1"/>
<text x="80.00" y="674" text-anchor="middle" font-size="12" font-family="Arial">1</text>
<line x1="80.00" y1="50" x2="80.00" y2="650" stroke="#eee" stroke-width="1"/>
<line x1="298.00" y1="650" x2="298.00" y2="656" stroke="#000" stroke-width="1"/>
<text x="298.00" y="674" text-anchor="middle" font-size="12" font-family="Arial">201</text>
<line x1="298.00" y1="50" x2="298.00" y2="650" stroke="#eee" stroke-width="1"/>
<line x1="516.00" y1="650" x2="516.00" y2="656" stroke="#000" stroke-width="1"/>
<text x="516.00" y="674" text-anchor="middle" font-size="12" font-family="Arial">401</text>
<line x1="516.00" y1="50" x2="516.00" y2="650" stroke="#eee" stroke-width="1"/>
<line x1="734.00" y1="650" x2="734.00" y2="656" stroke="#000" stroke-width="1"/>
<text x="734.00" y="674" text-anchor="middle" font-size="12" font-family="Arial">600</text>
<line x1="734.00" y1="50" x2="734.00" y2="650" stroke="#eee" stroke-width="1"/>
<line x1="952.00" y1="650" x2="952.00" y2="656" stroke="#000" stroke-width="1"/>
<text x="952.00" y="674" text-anchor="middle" font-size="12" font-family="Arial">800</text>
<line x1="952.00" y1="50" x2="952.00" y2="650" stroke="#eee" stroke-width="1"/>
<line x1="1170.00" y1="650" x2="1170.00" y2="656" stroke="#000" stroke-width="1"/>
<text x="1170.00" y="674" text-anchor="middle" font-size="12" font-family="Arial">1000</text>
<line x1="1170.00" y1="50" x2="1170.00" y2="650" stroke="#eee" stroke-width="1"/>
<line x1="74" y1="650.00" x2="80" y2="650.00" stroke="#000" stroke-width="1"/>
<text x="70" y="654.00" text-anchor="end" font-size="12" font-family="Arial">0.000</text>
<line x1="80" y1="650.00" x2="1170" y2="650.00" stroke="#eee" stroke-width="1"/>
<line x1="74" y1="530.00" x2="80" y2="530.00" stroke="#000" stroke-width="1"/>
<text x="70" y="534.00" text-anchor="end" font-size="12" font-family="Arial">0.365</text>
<line x1="80" y1="530.00" x2="1170" y2="530.00" stroke="#eee" stroke-width="1"/>
<line x1="74" y1="410.00" x2="80" y2="410.00" stroke="#000" stroke-width="1"/>
<text x="70" y="414.00" text-anchor="end" font-size="12" font-family="Arial">0.730</text>
<line x1="80" y1="410.00" x2="1170" y2="410.00" stroke="#eee" stroke-width="1"/>
<line x1="74" y1="290.00" x2="80" y2="290.00" stroke="#000" stroke-width="1"/>
<text x="70" y="294.00" text-anchor="end" font-size="12" font-family="Arial">1.094</text>
<line x1="80" y1="290.00" x2="1170" y2="290.00" stroke="#eee" stroke-width="1"/>
<line x1="74" y1="170.00" x2="80" y2="170.00" stroke="#000" stroke-width="1"/>
<text x="70" y="174.00" text-anchor="end" font-size="12" font-family="Arial">1.459</text>
<line x1="80" y1="170.00" x2="1170" y2="170.00" stroke="#eee" stroke-width="1"/>
<line x1="74" y1="50.00" x2="80" y2="50.00" stroke="#000" stroke-width="1"/>
<text x="70" y="54.00" text-anchor="end" font-size="12" font-family="Arial">1.824</text>
<line x1="80" y1="50.00" x2="1170" y2="50.00" stroke="#eee" stroke-width="1"/>
<line x1="80" y1="52.41" x2="1170" y2="52.41" stroke="#333" stroke-dasharray="6,4" stroke-width="1"/>
<text x="1168" y="46.41" text-anchor="end" font-size="12" font-family="Arial">hv_ref=1.817</text>
<line x1="80" y1="82.29" x2="1170" y2="82.29" stroke="#666" stroke-dasharray="3,4" stroke-width="1"/>
<text x="1168" y="76.29" text-anchor="end" font-size="12" font-family="Arial">0.95·hv_ref</text>
<path d="M 80.00 301.05 L 81.09 253.69 L 82.18 251.48 L 83.27 248.17 L 84.36 246.87 L 85.46 242.81 L 86.55 219.54 L 87.64 219.54 L 88.73 219.54 L 89.82 219.54 L 90.91 219.54 L 92.00 219.54 L 93.09 219.54 L 94.18 219.54 L 95.28 219.37 L 96.37 219.37 L 97.46 219.37 L 98.55 219.37 L 99.64 219.37 L 100.73 219.37 L 101.82 219.37 L 102.91 219.37 L 104.00 219.37 L 105.10 219.37 L 106.19 211.15 L 107.28 211.15 L 108.37 211.15 L 109.46 211.15 L 110.55 211.15 L 111.64 211.15 L 112.73 211.15 L 113.82 211.15 L 114.91 211.15 L 116.01 239.70 L 117.10 239.70 L 118.19 239.70 L 119.28 239.70 L 120.37 239.70 L 121.46 239.70 L 122.55 239.70 L 123.64 239.70 L 124.73 239.70 L 125.83 239.70 L 126.92 239.70 L 128.01 239.70 L 129.10 219.51 L 130.19 158.62 L 131.28 158.62 L 132.37 158.62 L 133.46 158.29 L 134.55 158.29 L 135.65 158.29 L 136.74 158.07 L 137.83 158.07 L 138.92 158.07 L 140.01 158.07 L 141.10 158.07 L 142.19 158.07 L 143.28 158.07 L 144.37 158.07 L 145.47 158.07 L 146.56 158.07 L 147.65 158.07 L 148.74 158.07 L 149.83 158.07 L 150.92 158.07 L 152.01 102.89 L 153.10 102.89 L 154.19 102.89 L 155.29 102.89 L 156.38 102.89 L 157.47 94.50 L 158.56 94.50 L 159.65 94.50 L 160.74 94.50 L 161.83 94.50 L 162.92 94.50 L 164.01 94.50 L 165.11 94.50 L 166.20 94.50 L 167.29 94.50 L 168.38 94.50 L 169.47 94.50 L 170.56 94.50 L 171.65 94.50 L 172.74 94.50 L 173.83 94.50 L 174.92 94.50 L 176.02 94.50 L 177.11 94.50 L 178.20 94.50 L 179.29 94.50 L 180.38 94.50 L 181.47 94.50 L 182.56 94.50 L 183.65 94.50 L 184.74 94.50 L 185.84 94.50 L 186.93 94.50 L 188.02 94.50 L 189.11 94.50 L 190.20 94.50 L 191.29 94.50 L 192.38 94.50 L 193.47 94.50 L 194.56 94.50 L 195.66 128.34 L 196.75 128.34 L 197.84 128.34 L 198.93 128.34 L 200.02 128.34 L 201.11 128.34 L 202.20 128.34 L 203.29 128.34 L 204.38 128.34 L 205.48 128.34 L 206.57 128.34 L 207.66 128.34 L 208.75 128.34 L 209.84 128.34 L 210.93 128.34 L 212.02 128.34 L 213.11 128.34 L 214.20 128.34 L 215.30 128.34 L 216.39 128.34 L 217.48 128.34 L 218.57 128.34 L 219.66 128.34 L 220.75 128.34 L 221.84 128.34 L 222.93 128.34 L 224.02 128.34 L 225.12 128.34 L 226.21 128.34 L 227.30 128.34 L 228.39 128.34 L 229.48 128.34 L 230.57 128.34 L 231.66 128.34 L 232.75 128.34 L 233.84 128.34 L 234.93 128.34 L 236.03 128.34 L 237.12 128.34 L 238.21 128.34 L 239.30 128.34 L 240.39 128.34 L 241.48 128.34 L 242.57 128.34 L 243.66 128.34 L 244.75 128.78 L 245.85 128.78 L 246.94 128.78 L 248.03 128.78 L 249.12 128.78 L 250.21 128.78 L 251.30 128.78 L 252.39 128.78 L 253.48 128.78 L 254.57 128.78 L 255.67 128.78 L 256.76 94.13 L 257.85 94.13 L 258.94 94.13 L 260.03 94.13 L 261.12 94.13 L 262.21 94.13 L 263.30 94.13 L 264.39 94.13 L 265.49 94.13 L 266.58 94.13 L 267.67 94.13 L 268.76 94.13 L 269.85 94.13 L 270.94 94.13 L 272.03 94.13 L 273.12 94.13 L 274.21 94.13 L 275.31 94.13 L 276.40 94.13 L 277.49 94.13 L 278.58 94.13 L 279.67 94.13 L 280.76 94.13 L 281.85 94.13 L 282.94 94.13 L 284.03 94.13 L 285.13 94.13 L 286.22 94.13 L 287.31 94.13 L 288.40 94.13 L 289.49 94.13 L 290.58 94.13 L 291.67 94.13 L 292.76 94.13 L 293.85 94.13 L 294.94 94.13 L 296.04 94.13 L 297.13 94.13 L 298.22 94.13 L 299.31 94.13 L 300.40 94.13 L 301.49 94.13 L 302.58 94.13 L 303.67 94.13 L 304.76 94.13 L 305.86 94.13 L 306.95 94.13 L 308.04 94.13 L 309.13 94.13 L 310.22 94.13 L 311.31 94.13 L 312.40 94.13 L 313.49 94.13 L 314.58 94.13 L 315.68 94.13 L 316.77 94.13 L 317.86 94.13 L 318.95 94.13 L 320.04 94.13 L 321.13 94.13 L 322.22 94.13 L 323.31 94.13 L 324.40 94.13 L 325.50 94.13 L 326.59 94.13 L 327.68 94.13 L 328.77 94.13 L 329.86 94.13 L 330.95 94.13 L 332.04 94.13 L 333.13 94.13 L 334.22 94.13 L 335.32 94.13 L 336.41 94.13 L 337.50 94.13 L 338.59 94.13 L 339.68 94.13 L 340.77 94.13 L 341.86 94.13 L 342.95 94.13 L 344.04 94.13 L 345.14 94.13 L 346.23 94.13 L 347.32 94.13 L 348.41 94.13 L 349.50 94.13 L 350.59 94.13 L 351.68 94.13 L 352.77 94.13 L 353.86 94.13 L 354.95 94.13 L 356.05 94.13 L 357.14 94.13 L 358.23 94.13 L 359.32 94.13 L 360.41 94.13 L 361.50 94.13 L 362.59 94.13 L 363.68 94.13 L 364.77 94.13 L 365.87 94.13 L 366.96 94.13 L 368.05 94.13 L 369.14 94.13 L 370.23 94.13 L 371.32 94.13 L 372.41 94.13 L 373.50 94.13 L 374.59 94.13 L 375.69 94.13 L 376.78 94.13 L 377.87 94.13 L 378.96 94.13 L 380.05 94.13 L 381.14 94.13 L 382.23 55.98 L 383.32 55.98 L 384.41 55.98 L 385.51 55.98 L 386.60 55.98 L 387.69 55.98 L 388.78 55.98 L 389.87 55.98 L 390.96 55.98 L 392.05 55.98 L 393.14 55.98 L 394.23 55.98 L 395.33 55.98 L 396.42 55.98 L 397.51 55.98 L 398.60 55.98 L 399.69 55.98 L 400.78 66.04 L 401.87 66.04 L 402.96 66.04 L 404.05 66.04 L 405.15 66.04 L 406.24 66.04 L 407.33 66.04 L 408.42 66.04 L 409.51 66.04 L 410.60 66.04 L 411.69 66.04 L 412.78 66.04 L 413.87 66.04 L 414.96 66.04 L 416.06 66.04 L 417.15 66.04 L 418.24 66.04 L 419.33 66.04 L 420.42 66.04 L 421.51 66.04 L 422.60 66.04 L 423.69 66.04 L 424.78 66.04 L 425.88 66.04 L 426.97 66.04 L 428.06 66.04 L 429.15 66.04 L 430.24 66.04 L 431.33 66.04 L 432.42 66.04 L 433.51 66.04 L 434.60 66.04 L 435.70 66.04 L 436.79 66.04 L 437.88 66.04 L 438.97 66.04 L 440.06 66.04 L 441.15 66.04 L 442.24 66.04 L 443.33 66.04 L 444.42 66.04 L 445.52 66.04 L 446.61 66.04 L 447.70 66.04 L 448.79 66.04 L 449.88 66.04 L 450.97 66.04 L 452.06 66.04 L 453.15 66.04 L 454.24 66.04 L 455.34 66.04 L 456.43 66.04 L 457.52 66.04 L 458.61 66.04 L 459.70 66.04 L 460.79 66.04 L 461.88 66.04 L 462.97 66.04 L 464.06 66.04 L 465.16 66.04 L 466.25 66.04 L 467.34 66.04 L 468.43 66.04 L 469.52 66.04 L 470.61 66.04 L 471.70 66.04 L 472.79 66.04 L 473.88 66.04 L 474.97 66.04 L 476.07 66.04 L 477.16 66.04 L 478.25 66.04 L 479.34 66.04 L 480.43 66.04 L 481.52 66.04 L 482.61 66.04 L 483.70 66.04 L 484.79 66.04 L 485.89 66.04 L 486.98 66.04 L 488.07 66.04 L 489.16 66.04 L 490.25 66.04 L 491.34 66.04 L 492.43 66.04 L 493.52 66.04 L 494.61 66.04 L 495.71 66.04 L 496.80 66.04 L 497.89 66.04 L 498.98 66.04 L 500.07 66.04 L 501.16 66.04 L 502.25 66.04 L 503.34 66.04 L 504.43 66.04 L 505.53 66.04 L 506.62 66.04 L 507.71 66.04 L 508.80 66.04 L 509.89 66.04 L 510.98 66.04 L 512.07 66.04 L 513.16 66.04 L 514.25 66.04 L 515.35 66.04 L 516.44 66.04 L 517.53 66.04 L 518.62 66.04 L 519.71 66.04 L 520.80 66.04 L 521.89 66.04 L 522.98 66.04 L 524.07 66.04 L 525.17 66.04 L 526.26 66.04 L 527.35 66.04 L 528.44 66.04 L 529.53 66.04 L 530.62 66.04 L 531.71 66.04 L 532.80 66.04 L 533.89 66.04 L 534.98 66.04 L 536.08 66.04 L 537.17 66.04 L 538.26 66.04 L 539.35 66.04 L 540.44 66.04 L 541.53 66.04 L 542.62 66.04 L 543.71 66.04 L 544.80 66.04 L 545.90 66.04 L 546.99 66.04 L 548.08 66.04 L 549.17 66.04 L 550.26 66.04 L 551.35 66.04 L 552.44 66.04 L 553.53 66.04 L 554.62 66.04 L 555.72 66.04 L 556.81 66.04 L 557.90 66.04 L 558.99 66.04 L 560.08 52.96 L 561.17 52.96 L 562.26 52.96 L 563.35 52.96 L 564.44 52.96 L 565.54 52.96 L 566.63 52.96 L 567.72 52.96 L 568.81 50.54 L 569.90 50.54 L 570.99 50.54 L 572.08 50.54 L 573.17 50.54 L 574.26 50.54 L 575.36 50.54 L 576.45 50.54 L 577.54 50.54 L 578.63 50.54 L 579.72 50.54 L 580.81 50.54 L 581.90 50.54 L 582.99 50.54 L 584.08 50.54 L 585.18 50.54 L 586.27 50.54 L 587.36 50.54 L 588.45 50.54 L 589.54 50.54 L 590.63 50.54 L 591.72 50.54 L 592.81 50.54 L 593.90 50.54 L 594.99 50.54 L 596.09 50.54 L 597.18 50.54 L 598.27 50.54 L 599.36 50.54 L 600.45 50.54 L 601.54 50.54 L 602.63 50.54 L 603.72 50.54 L 604.81 50.54 L 605.91 50.54 L 607.00 50.54 L 608.09 50.54 L 609.18 50.54 L 610.27 50.54 L 611.36 50.54 L 612.45 50.54 L 613.54 50.54 L 614.63 50.54 L 615.73 50.54 L 616.82 50.54 L 617.91 50.54 L 619.00 50.54 L 620.09 50.54 L 621.18 50.54 L 622.27 50.54 L 623.36 50.54 L 624.45 50.54 L 625.55 50.54 L 626.64 50.54 L 627.73 50.54 L 628.82 50.54 L 629.91 50.54 L 631.00 50.54 L 632.09 50.54 L 633.18 50.54 L 634.27 50.54 L 635.37 50.54 L 636.46 50.54 L 637.55 50.54 L 638.64 50.54 L 639.73 50.54 L 640.82 50.54 L 641.91 50.54 L 643.00 50.54 L 644.09 50.54 L 645.19 50.54 L 646.28 50.54 L 647.37 50.54 L 648.46 50.54 L 649.55 50.54 L 650.64 50.54 L 651.73 50.54 L 652.82 50.54 L 653.91 50.54 L 655.01 50.54 L 656.10 50.54 L 657.19 50.54 L 658.28 50.54 L 659.37 50.54 L 660.46 50.54 L 661.55 50.54 L 662.64 50.54 L 663.73 50.54 L 664.82 50.54 L 665.92 50.54 L 667.01 50.54 L 668.10 50.54 L 669.19 50.54 L 670.28 50.54 L 671.37 50.54 L 672.46 50.54 L 673.55 50.54 L 674.64 50.54 L 675.74 50.54 L 676.83 50.54 L 677.92 50.54 L 679.01 50.54 L 680.10 50.54 L 681.19 50.54 L 682.28 50.54 L 683.37 50.54 L 684.46 50.54 L 685.56 50.54 L 686.65 50.54 L 687.74 50.54 L 688.83 50.54 L 689.92 50.54 L 691.01 50.54 L 692.10 50.54 L 693.19 50.54 L 694.28 50.54 L 695.38 50.54 L 696.47 50.54 L 697.56 50.54 L 698.65 50.54 L 699.74 50.54 L 700.83 50.54 L 701.92 50.54 L 703.01 50.54 L 704.10 50.54 L 705.20 50.54 L 706.29 50.54 L 707.38 50.54 L 708.47 50.54 L 709.56 50.54 L 710.65 50.54 L 711.74 50.54 L 712.83 50.54 L 713.92 50.54 L 715.02 50.54 L 716.11 50.54 L 717.20 50.54 L 718.29 50.54 L 719.38 50.54 L 720.47 50.54 L 721.56 50.54 L 722.65 50.54 L 723.74 50.54 L 724.83 50.54 L 725.93 50.54 L 727.02 50.54 L 728.11 50.54 L 729.20 50.54 L 730.29 50.54 L 731.38 50.54 L 732.47 50.54 L 733.56 50.54 L 734.65 50.54 L 735.75 50.54 L 736.84 50.54 L 737.93 50.54 L 739.02 50.54 L 740.11 50.54 L 741.20 50.54 L 742.29 50.54 L 743.38 50.54 L 744.47 50.54 L 745.57 50.54 L 746.66 50.54 L 747.75 50.42 L 748.84 50.42 L 749.93 50.42 L 751.02 50.42 L 752.11 50.42 L 753.20 50.42 L 754.29 50.42 L 755.39 50.42 L 756.48 50.42 L 757.57 50.42 L 758.66 50.42 L 759.75 50.42 L 760.84 50.42 L 761.93 50.42 L 763.02 50.42 L 764.11 50.42 L 765.21 50.42 L 766.30 50.42 L 767.39 50.42 L 768.48 50.42 L 769.57 50.42 L 770.66 50.42 L 771.75 50.42 L 772.84 50.42 L 773.93 50.42 L 775.03 50.42 L 776.12 50.42 L 777.21 50.42 L 778.30 50.42 L 779.39 50.42 L 780.48 50.42 L 781.57 50.42 L 782.66 50.42 L 783.75 50.42 L 784.84 50.42 L 785.94 50.42 L 787.03 50.42 L 788.12 50.42 L 789.21 50.42 L 790.30 50.42 L 791.39 50.42 L 792.48 50.42 L 793.57 50.42 L 794.66 50.42 L 795.76 50.23 L 796.85 50.23 L 797.94 50.23 L 799.03 50.23 L 800.12 50.23 L 801.21 50.23 L 802.30 50.23 L 803.39 50.23 L 804.48 50.23 L 805.58 50.23 L 806.67 50.23 L 807.76 50.23 L 808.85 50.23 L 809.94 50.23 L 811.03 50.23 L 812.12 50.23 L 813.21 50.23 L 814.30 50.23 L 815.40 50.23 L 816.49 50.23 L 817.58 50.23 L 818.67 50.23 L 819.76 50.23 L 820.85 50.23 L 821.94 50.23 L 823.03 50.23 L 824.12 50.23 L 825.22 50.23 L 826.31 50.23 L 827.40 50.23 L 828.49 50.23 L 829.58 50.23 L 830.67 50.23 L 831.76 50.23 L 832.85 50.23 L 833.94 50.23 L 835.04 50.23 L 836.13 50.23 L 837.22 50.23 L 838.31 50.23 L 839.40 50.23 L 840.49 50.23 L 841.58 50.23 L 842.67 50.23 L 843.76 50.23 L 844.85 50.23 L 845.95 50.23 L 847.04 50.23 L 848.13 50.23 L 849.22 50.23 L 850.31 50.23 L 851.40 50.23 L 852.49 50.23 L 853.58 50.23 L 854.67 50.23 L 855.77 50.23 L 856.86 50.23 L 857.95 50.23 L 859.04 50.23 L 860.13 50.23 L 861.22 50.23 L 862.31 50.23 L 863.40 50.23 L 864.49 50.23 L 865.59 50.23 L 866.68 50.23 L 867.77 50.23 L 868.86 50.23 L 869.95 50.23 L 871.04 50.23 L 872.13 50.23 L 873.22 50.23 L 874.31 50.23 L 875.41 50.23 L 876.50 50.23 L 877.59 50.23 L 878.68 50.23 L 879.77 50.23 L 880.86 50.23 L 881.95 50.23 L 883.04 50.23 L 884.13 52.44 L 885.23 52.44 L 886.32 52.44 L 887.41 52.44 L 888.50 52.44 L 889.59 52.44 L 890.68 52.44 L 891.77 52.44 L 892.86 52.44 L 893.95 52.63 L 895.05 52.63 L 896.14 52.63 L 897.23 52.63 L 898.32 52.63 L 899.41 52.63 L 900.50 52.63 L 901.59 52.63 L 902.68 52.63 L 903.77 52.63 L 904.86 52.63 L 905.96 52.63 L 907.05 52.63 L 908.14 52.63 L 909.23 52.63 L 910.32 52.63 L 911.41 52.63 L 912.50 52.63 L 913.59 52.63 L 914.68 52.63 L 915.78 52.63 L 916.87 52.63 L 917.96 52.63 L 919.05 52.63 L 920.14 52.63 L 921.23 52.63 L 922.32 52.63 L 923.41 52.63 L 924.50 52.63 L 925.60 52.63 L 926.69 52.63 L 927.78 52.63 L 928.87 52.63 L 929.96 52.63 L 931.05 52.63 L 932.14 52.63 L 933.23 52.63 L 934.32 52.63 L 935.42 52.63 L 936.51 52.63 L 937.60 52.63 L 938.69 52.63 L 939.78 52.63 L 940.87 52.63 L 941.96 52.63 L 943.05 52.63 L 944.14 52.63 L 945.24 52.63 L 946.33 52.63 L 947.42 52.63 L 948.51 52.63 L 949.60 52.63 L 950.69 52.63 L 951.78 52.63 L 952.87 52.63 L 953.96 52.63 L 955.06 52.63 L 956.15 52.63 L 957.24 52.63 L 958.33 52.63 L 959.42 52.63 L 960.51 52.63 L 961.60 52.63 L 962.69 52.63 L 963.78 52.63 L 964.87 52.63 L 965.97 52.63 L 967.06 52.63 L 968.15 52.63 L 969.24 52.63 L 970.33 52.63 L 971.42 52.63 L 972.51 52.63 L 973.60 52.63 L 974.69 52.63 L 975.79 50.00 L 976.88 50.00 L 977.97 50.00 L 979.06 50.00 L 980.15 50.00 L 981.24 50.00 L 982.33 50.00 L 983.42 50.00 L 984.51 50.00 L 985.61 50.00 L 986.70 50.00 L 987.79 50.00 L 988.88 50.00 L 989.97 50.00 L 991.06 50.00 L 992.15 50.00 L 993.24 50.00 L 994.33 50.00 L 995.43 50.00 L 996.52 50.00 L 997.61 50.00 L 998.70 50.00 L 999.79 50.00 L 1000.88 50.00 L 1001.97 50.00 L 1003.06 50.00 L 1004.15 50.00 L 1005.25 50.00 L 1006.34 50.00 L 1007.43 50.00 L 1008.52 50.00 L 1009.61 50.00 L 1010.70 50.00 L 1011.79 50.00 L 1012.88 50.00 L 1013.97 50.00 L 1015.07 50.00 L 1016.16 50.00 L 1017.25 50.00 L 1018.34 50.00 L 1019.43 50.00 L 1020.52 50.00 L 1021.61 50.00 L 1022.70 50.00 L 1023.79 50.00 L 1024.88 50.00 L 1025.98 50.00 L 1027.07 50.00 L 1028.16 50.00 L 1029.25 50.00 L 1030.34 50.00 L 1031.43 50.00 L 1032.52 50.00 L 1033.61 50.00 L 1034.70 50.00 L 1035.80 50.00 L 1036.89 50.00 L 1037.98 50.00 L 1039.07 50.00 L 1040.16 50.00 L 1041.25 50.00 L 1042.34 50.00 L 1043.43 50.00 L 1044.52 50.00 L 1045.62 50.00 L 1046.71 50.00 L 1047.80 50.00 L 1048.89 50.00 L 1049.98 50.00 L 1051.07 50.00 L 1052.16 50.00 L 1053.25 50.00 L 1054.34 50.00 L 1055.44 50.00 L 1056.53 50.00 L 1057.62 50.00 L 1058.71 50.00 L 1059.80 50.00 L 1060.89 50.00 L 1061.98 50.00 L 1063.07 50.00 L 1064.16 50.00 L 1065.26 50.00 L 1066.35 50.00 L 1067.44 50.00 L 1068.53 50.00 L 1069.62 50.00 L 1070.71 50.00 L 1071.80 50.00 L 1072.89 50.00 L 1073.98 50.00 L 1075.08 50.00 L 1076.17 50.00 L 1077.26 50.00 L 1078.35 50.00 L 1079.44 50.00 L 1080.53 50.00 L 1081.62 50.00 L 1082.71 50.00 L 1083.80 50.00 L 1084.89 50.00 L 1085.99 50.00 L 1087.08 50.00 L 1088.17 50.00 L 1089.26 50.00 L 1090.35 50.00 L 1091.44 50.00 L 1092.53 50.00 L 1093.62 50.00 L 1094.71 50.00 L 1095.81 50.00 L 1096.90 50.00 L 1097.99 50.00 L 1099.08 50.00 L 1100.17 50.00 L 1101.26 50.00 L 1102.35 50.00 L 1103.44 50.00 L 1104.53 50.00 L 1105.63 50.00 L 1106.72 50.00 L 1107.81 50.00 L 1108.90 50.00 L 1109.99 50.00 L 1111.08 50.00 L 1112.17 50.00 L 1113.26 50.00 L 1114.35 50.00 L 1115.45 50.00 L 1116.54 50.00 L 1117.63 50.00 L 1118.72 50.00 L 1119.81 50.00 L 1120.90 50.00 L 1121.99 50.00 L 1123.08 50.00 L 1124.17 50.00 L 1125.27 50.00 L 1126.36 50.00 L 1127.45 50.00 L 1128.54 50.00 L 1129.63 50.00 L 1130.72 50.00 L 1131.81 50.00 L 1132.90 50.00 L 1133.99 50.00 L 1135.09 50.00 L 1136.18 50.00 L 1137.27 50.00 L 1138.36 50.00 L 1139.45 50.00 L 1140.54 50.00 L 1141.63 50.00 L 1142.72 50.00 L 1143.81 50.00 L 1144.90 50.00 L 1146.00 50.00 L 1147.09 50.00 L 1148.18 50.00 L 1149.27 50.00 L 1150.36 50.00 L 1151.45 50.00 L 1152.54 50.00 L 1153.63 50.00 L 1154.72 50.00 L 1155.82 50.00 L 1156.91 50.00 L 1158.00 52.49 L 1159.09 52.49 L 1160.18 52.49 L 1161.27 52.49 L 1162.36 52.49 L 1163.45 52.49 L 1164.54 52.49 L 1165.64 52.49 L 1166.73 52.49 L 1167.82 52.49 L 1168.91 52.49 L 1170.00 52.49" fill="none" stroke="#1f77b4" stroke-width="2"/>
<rect x="90" y="50" width="14" height="3" fill="#1f77b4"/>
<text x="110" y="53" font-size="12" font-family="Arial">random</text>
<text x="625.0" y="696" text-anchor="middle" font-size="14" font-family="Arial">Samples</text>
<text x="18" y="350.0" text-anchor="middle" font-size="14" font-family="Arial" transform="rotate(-90 18 350.0)">Hypervolume</text>
</svg>