<svg xmlns="http://www.w3.org/2000/svg" width="1200" height="720">
<rect x="0" y="0" width="100%" height="100%" fill="white"/>
<text x="600.0" y="28" text-anchor="middle" font-size="18" font-family="Arial">Pareto Search Convergence (HV)</text>
<line x1="80" y1="50" x2="80" y2="650" stroke="#000" stroke-width="1"/>
<line x1="80" y1="650" x2="1170" y2="650" stroke="#000" stroke-width="1"/>
<line x1="80.00" y1="650" x2="80.00" y2="656" stroke="#000" stroke-width="1"/>
<text x="80.00" y="674" text-anchor="middle" font-size="12" font-family="Arial">1</text>
<line x1="80.00" y1="50" x2="80.00" y2="650" stroke="#eee" stroke-width="1"/>
<line x1="298.00" y1="650" x2="298.00" y2="656" stroke="#000" stroke-width="1"/>
<text x="298.00" y="674" text-anchor="middle" font-size="12" font-family="Arial">201</text>
<line x1="298.00" y1="50" x2="298.00" y2="650" stroke="#eee" stroke-width="1"/>
<line x1="516.00" y1="650" x2="516.00" y2="656" stroke="#000" stroke-width="1"/>
<text x="516.00" y="674" text-anchor="middle" font-size="12" font-family="Arial">401</text>
<line x1="516.00" y1="50" x2="516.00" y2="650" stroke="#eee" stroke-width="1"/>
<line x1="734.00" y1="650" x2="734.00" y2="656" stroke="#000" stroke-width="1"/>
<text x="734.00" y="674" text-anchor="middle" font-size="12" font-family="Arial">600</text>
<line x1="734.00" y1="50" x2="734.00" y2="650" stroke="#eee" stroke-width="1"/>
<line x1="952.00" y1="650" x2="952.00" y2="656" stroke="#000" stroke-width="1"/>
<text x="952.00" y="674" text-anchor="middle" font-size="12" font-family="Arial">800</text>
<line x1="952.00" y1="50" x2="952.00" y2="650" stroke="#eee" stroke-width="1"/>
<line x1="1170.00" y1="650" x2="1170.00" y2="656" stroke="#000" stroke-width="1"/>
<text x="1170.00" y="674" text-anchor="middle" font-size="12" font-family="Arial">1000</text>
<line x1="1170.00" y1="50" x2="1170.00" y2="650" stroke="#eee" stroke-width="1"/>
<line x1="74" y1="650.00" x2="80" y2="650.00" stroke="#000" stroke-width="1"/>
<text x="70" y="654.00" text-anchor="end" font-size="12" font-family="Arial">0.000</text>
<line x1="80" y1="650.00" x2="1170" y2="650.00" stroke="#eee" stroke-width="1"/>
<line x1="74" y1="530.00" x2="80" y2="530.00" stroke="#000" stroke-width="1"/>
<text x="70" y="534.00" text-anchor="end" font-size="12" font-family="Arial">0.243</text>
<line x1="80" y1="530.00" x2="1170" y2="530.00" stroke="#eee" stroke-width="1"/>
<line x1="74" y1="410.00" x2="80" y2="410.00" stroke="#000" stroke-width="1"/>
<text x="70" y="414.00" text-anchor="end" font-size="12" font-family="Arial">0.487</text>
<line x1="80" y1="410.00" x2="1170" y2="410.00" stroke="#eee" stroke-width="1"/>
<line x1="74" y1="290.00" x2="80" y2="290.00" stroke="#000" stroke-width="1"/>
<text x="70" y="294.00" text-anchor="end" font-size="12" font-family="Arial">0.730</text>
<line x1="80" y1="290.00" x2="1170" y2="290.00" stroke="#eee" stroke-width="1"/>
<line x1="74" y1="170.00" x2="80" y2="170.00" stroke="#000" stroke-width="1"/>
<text x="70" y="174.00" text-anchor="end" font-size="12" font-family="Arial">0.973</text>
<line x1="80" y1="170.00" x2="1170" y2="170.00" stroke="#eee" stroke-width="1"/>
<line x1="74" y1="50.00" x2="80" y2="50.00" stroke="#000" stroke-width="1"/>
<text x="70" y="54.00" text-anchor="end" font-size="12" font-family="Arial">1.217</text>
<line x1="80" y1="50.00" x2="1170" y2="50.00" stroke="#eee" stroke-width="1"/>
<line x1="80" y1="102.50" x2="1170" y2="102.50" stroke="#333" stroke-dasharray="6,4" stroke-width="1"/>
<text x="1168" y="96.50" text-anchor="end" font-size="12" font-family="Arial">hv_ref=1.110</text>
<line x1="80" y1="129.88" x2="1170" y2="129.88" stroke="#666" stroke-dasharray="3,4" stroke-width="1"/>
<text x="1168" y="123.88" text-anchor="end" font-size="12" font-family="Arial">0.95·hv_ref</text>
<path d="M 80.00 142.23 L 81.09 142.23 L 82.18 142.23 L 83.27 271.94 L 84.36 125.90 L 85.46 125.90 L 86.55 123.18 L 87.64 123.20 L 88.73 118.74 L 89.82 118.95 L 90.91 118.95 L 92.00 118.95 L 93.09 118.95 L 94.18 118.95 L 95.28 118.95 L 96.37 118.95 L 97.46 118.95 L 98.55 118.95 L 99.64 118.95 L 100.73 118.95 L 101.82 118.95 L 102.91 118.95 L 104.00 118.95 L 105.10 118.95 L 106.19 118.95 L 107.28 117.29 L 108.37 117.29 L 109.46 117.30 L 110.55 117.30 L 111.64 116.77 L 112.73 116.77 L 113.82 116.77 L 114.91 116.77 L 116.01 135.93 L 117.10 136.30 L 118.19 136.30 L 119.28 136.30 L 120.37 117.21 L 121.46 117.21 L 122.55 117.21 L 123.64 117.21 L 124.73 117.21 L 125.83 117.21 L 126.92 117.21 L 128.01 117.21 L 129.10 157.24 L 130.19 157.24 L 131.28 157.24 L 132.37 157.24 L 133.46 157.24 L 134.55 157.24 L 135.65 157.24 L 136.74 157.24 L 137.83 157.24 L 138.92 157.24 L 140.01 157.24 L 141.10 157.24 L 142.19 157.24 L 143.28 157.24 L 144.37 157.24 L 145.47 157.24 L 146.56 157.24 L 147.65 157.24 L 148.74 157.24 L 149.83 81.30 L 150.92 81.30 L 152.01 81.30 L 153.10 81.30 L 154.19 81.30 L 155.29 81.30 L 156.38 81.30 L 157.47 80.63 L 158.56 80.63 L 159.65 80.63 L 160.74 80.63 L 161.83 80.63 L 162.92 80.63 L 164.01 80.63 L 165.11 80.63 L 166.20 80.63 L 167.29 80.63 L 168.38 80.63 L 169.47 80.63 L 170.56 80.63 L 171.65 80.63 L 172.74 80.63 L 173.83 80.63 L 174.92 80.63 L 176.02 80.63 L 177.11 80.63 L 178.20 80.63 L 179.29 80.63 L 180.38 80.63 L 181.47 80.63 L 182.56 80.63 L 183.65 80.63 L 184.74 80.63 L 185.84 80.63 L 186.93 80.63 L 188.02 80.63 L 189.11 75.24 L 190.20 75.24 L 191.29 75.24 L 192.38 73.01 L 193.47 73.01 L 194.56 73.01 L 195.66 73.01 L 196.75 73.01 L 197.84 73.01 L 198.93 73.01 L 200.02 73.01 L 201.11 73.01 L 202.20 73.01 L 203.29 73.01 L 204.38 73.01 L 205.48 73.01 L 206.57 73.01 L 207.66 69.94 L 208.75 69.94 L 209.84 69.94 L 210.93 69.94 L 212.02 69.94 L 213.11 69.94 L 214.20 69.94 L 215.30 69.94 L 216.39 69.94 L 217.48 69.94 L 218.57 69.94 L 219.66 69.94 L 220.75 69.94 L 221.84 96.61 L 222.93 96.61 L 224.02 96.61 L 225.12 96.61 L 226.21 96.61 L 227.30 96.61 L 228.39 96.61 L 229.48 101.29 L 230.57 101.29 L 231.66 101.29 L 232.75 101.29 L 233.84 101.29 L 234.93 101.29 L 236.03 101.29 L 237.12 101.29 L 238.21 101.29 L 239.30 101.29 L 240.39 100.64 L 241.48 100.64 L 242.57 100.64 L 243.66 100.64 L 244.75 100.64 L 245.85 100.64 L 246.94 100.64 L 248.03 100.64 L 249.12 100.64 L 250.21 100.64 L 251.30 100.64 L 252.39 100.64 L 253.48 100.64 L 254.57 100.64 L 255.67 100.64 L 256.76 100.64 L 257.85 100.64 L 258.94 100.64 L 260.03 100.64 L 261.12 100.64 L 262.21 100.64 L 263.30 100.64 L 264.39 100.64 L 265.49 100.90 L 266.58 100.90 L 267.67 100.90 L 268.76 100.90 L 269.85 100.90 L 270.94 100.90 L 272.03 100.90 L 273.12 100.90 L 274.21 100.90 L 275.31 100.90 L 276.40 100.90 L 277.49 100.90 L 278.58 100.90 L 279.67 100.90 L 280.76 100.90 L 281.85 100.90 L 282.94 100.90 L 284.03 100.90 L 285.13 100.90 L 286.22 100.90 L 287.31 100.90 L 288.40 100.90 L 289.49 100.90 L 290.58 100.90 L 291.67 100.90 L 292.76 100.90 L 293.85 100.90 L 294.94 100.90 L 296.04 100.90 L 297.13 100.90 L 298.22 100.90 L 299.31 100.90 L 300.40 100.90 L 301.49 100.90 L 302.58 100.90 L 303.67 100.90 L 304.76 100.90 L 305.86 100.90 L 306.95 100.90 L 308.04 100.90 L 309.13 100.90 L 310.22 100.90 L 311.31 100.90 L 312.40 100.90 L 313.49 100.90 L 314.58 100.90 L 315.68 100.90 L 316.77 100.90 L 317.86 100.90 L 318.95 100.90 L 320.04 100.90 L 321.13 100.90 L 322.22 100.90 L 323.31 100.90 L 324.40 100.90 L 325.50 100.90 L 326.59 100.90 L 327.68 100.90 L 328.77 100.90 L 329.86 100.90 L 330.95 100.90 L 332.04 100.90 L 333.13 100.90 L 334.22 100.90 L 335.32 100.90 L 336.41 100.90 L 337.50 100.90 L 338.59 100.90 L 339.68 101.58 L 340.77 101.58 L 341.86 101.58 L 342.95 101.58 L 344.04 101.58 L 345.14 101.58 L 346.23 101.58 L 347.32 101.58 L 348.41 101.58 L 349.50 101.58 L 350.59 101.58 L 351.68 101.58 L 352.77 101.58 L 353.86 101.58 L 354.95 101.58 L 356.05 101.58 L 357.14 101.58 L 358.23 101.58 L 359.32 101.58 L 360.41 101.58 L 361.50 101.58 L 362.59 101.58 L 363.68 101.58 L 364.77 101.58 L 365.87 101.58 L 366.96 101.58 L 368.05 101.58 L 369.14 101.58 L 370.23 101.58 L 371.32 101.58 L 372.41 101.58 L 373.50 100.93 L 374.59 100.93 L 375.69 100.93 L 376.78 100.93 L 377.87 100.93 L 378.96 100.93 L 380.05 100.93 L 381.14 100.93 L 382.23 100.93 L 383.32 97.97 L 384.41 97.97 L 385.51 97.97 L 386.60 97.97 L 387.69 97.97 L 388.78 97.97 L 389.87 97.97 L 390.96 97.97 L 392.05 98.02 L 393.14 98.02 L 394.23 98.02 L 395.33 98.02 L 396.42 98.02 L 397.51 98.02 L 398.60 98.02 L 399.69 98.02 L 400.78 98.02 L 401.87 98.02 L 402.96 98.02 L 404.05 98.02 L 405.15 98.02 L 406.24 98.02 L 407.33 98.02 L 408.42 98.02 L 409.51 98.02 L 410.60 98.02 L 411.69 98.02 L 412.78 98.02 L 413.87 98.02 L 414.96 98.02 L 416.06 98.02 L 417.15 98.02 L 418.24 98.02 L 419.33 98.02 L 420.42 98.02 L 421.51 98.02 L 422.60 98.02 L 423.69 98.02 L 424.78 98.02 L 425.88 98.02 L 426.97 98.02 L 428.06 98.02 L 429.15 98.02 L 430.24 98.02 L 431.33 98.02 L 432.42 98.02 L 433.51 98.02 L 434.60 98.02 L 435.70 98.02 L 436.79 98.02 L 437.88 98.02 L 438.97 98.02 L 440.06 98.02 L 441.15 98.02 L 442.24 98.02 L 443.33 98.02 L 444.42 98.02 L 445.52 98.02 L 446.61 98.02 L 447.70 98.02 L 448.79 98.02 L 449.88 98.02 L 450.97 98.02 L 452.06 98.02 L 453.15 98.02 L 454.24 98.02 L 455.34 98.02 L 456.43 98.02 L 457.52 98.02 L 458.61 98.02 L 459.70 98.02 L 460.79 98.02 L 461.88 98.02 L 462.97 98.02 L 464.06 98.02 L 465.16 98.02 L 466.25 98.02 L 467.34 98.02 L 468.43 98.02 L 469.52 98.02 L 470.61 98.02 L 471.70 98.02 L 472.79 98.02 L 473.88 98.02 L 474.97 100.77 L 476.07 100.77 L 477.16 100.77 L 478.25 100.77 L 479.34 100.77 L 480.43 100.77 L 481.52 100.77 L 482.61 100.77 L 483.70 100.77 L 484.79 99.54 L 485.89 99.54 L 486.98 99.54 L 488.07 99.54 L 489.16 99.54 L 490.25 99.54 L 491.34 99.54 L 492.43 99.54 L 493.52 99.54 L 494.61 99.54 L 495.71 99.54 L 496.80 99.54 L 497.89 99.54 L 498.98 99.54 L 500.07 99.54 L 501.16 99.54 L 502.25 99.54 L 503.34 99.54 L 504.43 99.54 L 505.53 99.54 L 506.62 99.54 L 507.71 99.54 L 508.80 99.54 L 509.89 99.54 L 510.98 99.54 L 512.07 99.54 L 513.16 99.54 L 514.25 99.54 L 515.35 99.54 L 516.44 99.54 L 517.53 99.54 L 518.62 99.54 L 519.71 99.54 L 520.80 99.54 L 521.89 99.54 L 522.98 99.54 L 524.07 99.54 L 525.17 99.54 L 526.26 99.54 L 527.35 99.54 L 528.44 99.54 L 529.53 99.54 L 530.62 99.54 L 531.71 99.54 L 532.80 99.54 L 533.89 99.54 L 534.98 99.54 L 536.08 99.54 L 537.17 99.54 L 538.26 99.54 L 539.35 99.54 L 540.44 99.54 L 541.53 99.54 L 542.62 99.54 L 543.71 99.54 L 544.80 99.54 L 545.90 99.54 L 546.99 99.54 L 548.08 99.54 L 549.17 99.54 L 550.26 99.54 L 551.35 99.54 L 552.44 99.54 L 553.53 99.54 L 554.62 99.54 L 555.72 99.54 L 556.81 99.54 L 557.90 99.54 L 558.99 99.54 L 560.08 99.54 L 561.17 99.54 L 562.26 99.54 L 563.35 99.54 L 564.44 99.54 L 565.54 99.54 L 566.63 99.54 L 567.72 99.54 L 568.81 99.66 L 569.90 99.66 L 570.99 99.66 L 572.08 99.66 L 573.17 99.66 L 574.26 99.66 L 575.36 99.66 L 576.45 99.66 L 577.54 99.66 L 578.63 99.66 L 579.72 98.91 L 580.81 98.91 L 581.90 98.91 L 582.99 98.91 L 584.08 98.91 L 585.18 98.91 L 586.27 98.91 L 587.36 98.91 L 588.45 98.91 L 589.54 98.91 L 590.63 98.91 L 591.72 98.91 L 592.81 98.91 L 593.90 98.91 L 594.99 98.91 L 596.09 98.91 L 597.18 98.91 L 598.27 98.91 L 599.36 98.91 L 600.45 98.91 L 601.54 98.91 L 602.63 98.91 L 603.72 98.91 L 604.81 98.91 L 605.91 98.91 L 607.00 98.91 L 608.09 98.91 L 609.18 98.91 L 610.27 98.91 L 611.36 98.91 L 612.45 98.91 L 613.54 98.91 L 614.63 98.91 L 615.73 98.91 L 616.82 98.91 L 617.91 98.91 L 619.00 98.91 L 620.09 98.91 L 621.18 98.91 L 622.27 98.91 L 623.36 98.91 L 624.45 98.91 L 625.55 98.91 L 626.64 98.91 L 627.73 98.91 L 628.82 98.91 L 629.91 98.91 L 631.00 98.91 L 632.09 98.91 L 633.18 98.91 L 634.27 98.91 L 635.37 98.91 L 636.46 98.91 L 637.55 98.91 L 638.64 98.91 L 639.73 98.91 L 640.82 98.91 L 641.91 98.91 L 643.00 98.91 L 644.09 98.91 L 645.19 98.91 L 646.28 98.91 L 647.37 98.91 L 648.46 98.91 L 649.55 98.91 L 650.64 98.91 L 651.73 98.91 L 652.82 98.91 L 653.91 98.91 L 655.01 98.91 L 656.10 98.91 L 657.19 98.91 L 658.28 98.91 L 659.37 98.91 L 660.46 98.91 L 661.55 98.91 L 662.64 98.91 L 663.73 98.91 L 664.82 98.91 L 665.92 98.91 L 667.01 98.91 L 668.10 98.91 L 669.19 98.91 L 670.28 98.91 L 671.37 98.91 L 672.46 98.91 L 673.55 98.91 L 674.64 98.91 L 675.74 98.91 L 676.83 98.91 L 677.92 98.91 L 679.01 98.91 L 680.10 98.91 L 681.19 98.91 L 682.28 98.91 L 683.37 98.91 L 684.46 98.91 L 685.56 98.91 L 686.65 98.91 L 687.74 98.91 L 688.83 98.91 L 689.92 98.91 L 691.01 98.91 L 692.10 98.91 L 693.19 98.91 L 694.28 98.91 L 695.38 98.91 L 696.47 98.91 L 697.56 99.10 L 698.65 99.10 L 699.74 99.10 L 700.83 99.10 L 701.92 99.10 L 703.01 99.10 L 704.10 99.10 L 705.20 99.10 L 706.29 99.10 L 707.38 99.10 L 708.47 99.10 L 709.56 99.10 L 710.65 99.10 L 711.74 99.10 L 712.83 99.10 L 713.92 99.10 L 715.02 99.10 L 716.11 99.10 L 717.20 99.10 L 718.29 99.10 L 719.38 99.10 L 720.47 99.10 L 721.56 99.10 L 722.65 99.10 L 723.74 99.10 L 724.83 99.10 L 725.93 99.10 L 727.02 99.10 L 728.11 99.10 L 729.20 99.10 L 730.29 99.10 L 731.38 99.10 L 732.47 99.10 L 733.56 99.10 L 734.65 99.10 L 735.75 99.10 L 736.84 99.10 L 737.93 99.10 L 739.02 99.10 L 740.11 99.10 L 741.20 99.10 L 742.29 99.10 L 743.38 99.10 L 744.47 99.10 L 745.57 99.10 L 746.66 99.10 L 747.75 99.10 L 748.84 99.10 L 749.93 99.10 L 751.02 99.10 L 752.11 99.10 L 753.20 99.10 L 754.29 99.10 L 755.39 99.10 L 756.48 99.10 L 757.57 99.10 L 758.66 99.10 L 759.75 104.68 L 760.84 104.68 L 761.93 104.68 L 763.02 104.68 L 764.11 104.68 L 765.21 104.68 L 766.30 104.68 L 767.39 104.68 L 768.48 104.68 L 769.57 104.68 L 770.66 104.68 L 771.75 104.68 L 772.84 104.68 L 773.93 104.68 L 775.03 104.68 L 776.12 104.68 L 777.21 104.68 L 778.30 104.68 L 779.39 104.68 L 780.48 104.68 L 781.57 104.68 L 782.66 104.68 L 783.75 104.68 L 784.84 104.68 L 785.94 104.68 L 787.03 104.68 L 788.12 104.68 L 789.21 104.68 L 790.30 104.68 L 791.39 104.68 L 792.48 104.68 L 793.57 104.68 L 794.66 104.68 L 795.76 104.68 L 796.85 104.68 L 797.94 104.68 L 799.03 104.68 L 800.12 104.68 L 801.21 104.68 L 802.30 104.68 L 803.39 104.68 L 804.48 104.68 L 805.58 104.68 L 806.67 104.68 L 807.76 104.68 L 808.85 104.68 L 809.94 104.68 L 811.03 104.68 L 812.12 104.68 L 813.21 104.68 L 814.30 104.68 L 815.40 104.68 L 816.49 104.68 L 817.58 104.68 L 818.67 104.68 L 819.76 104.68 L 820.85 104.68 L 821.94 104.68 L 823.03 104.68 L 824.12 104.68 L 825.22 104.68 L 826.31 104.68 L 827.40 104.68 L 828.49 104.68 L 829.58 104.68 L 830.67 104.68 L 831.76 104.68 L 832.85 104.68 L 833.94 104.68 L 835.04 104.68 L 836.13 104.68 L 837.22 104.68 L 838.31 104.68 L 839.40 104.68 L 840.49 104.68 L 841.58 104.68 L 842.67 104.68 L 843.76 104.68 L 844.85 104.68 L 845.95 104.68 L 847.04 104.68 L 848.13 104.68 L 849.22 104.68 L 850.31 104.68 L 851.40 104.68 L 852.49 104.68 L 853.58 104.68 L 854.67 104.68 L 855.77 104.68 L 856.86 104.68 L 857.95 104.68 L 859.04 104.68 L 860.13 104.68 L 861.22 104.68 L 862.31 104.67 L 863.40 104.67 L 864.49 104.67 L 865.59 104.67 L 866.68 104.67 L 867.77 104.67 L 868.86 104.67 L 869.95 104.67 L 871.04 104.67 L 872.13 104.67 L 873.22 104.67 L 874.31 104.67 L 875.41 104.67 L 876.50 104.67 L 877.59 104.67 L 878.68 104.67 L 879.77 104.67 L 880.86 104.67 L 881.95 104.67 L 883.04 104.67 L 884.13 104.67 L 885.23 104.67 L 886.32 104.67 L 887.41 104.67 L 888.50 104.67 L 889.59 104.67 L 890.68 104.67 L 891.77 104.67 L 892.86 50.00 L 893.95 50.00 L 895.05 50.00 L 896.14 50.00 L 897.23 50.00 L 898.32 50.00 L 899.41 50.00 L 900.50 50.00 L 901.59 50.00 L 902.68 50.00 L 903.77 50.00 L 904.86 50.00 L 905.96 50.00 L 907.05 50.00 L 908.14 50.00 L 909.23 50.00 L 910.32 50.00 L 911.41 50.00 L 912.50 50.00 L 913.59 50.00 L 914.68 50.00 L 915.78 50.00 L 916.87 50.00 L 917.96 50.00 L 919.05 50.00 L 920.14 50.00 L 921.23 50.00 L 922.32 50.00 L 923.41 50.00 L 924.50 50.00 L 925.60 50.00 L 926.69 50.00 L 927.78 50.00 L 928.87 50.00 L 929.96 50.00 L 931.05 50.00 L 932.14 50.00 L 933.23 50.00 L 934.32 50.00 L 935.42 50.00 L 936.51 50.00 L 937.60 50.00 L 938.69 50.00 L 939.78 50.00 L 940.87 50.00 L 941.96 50.00 L 943.05 50.00 L 944.14 50.00 L 945.24 50.00 L 946.33 50.00 L 947.42 50.00 L 948.51 50.00 L 949.60 50.00 L 950.69 50.00 L 951.78 50.00 L 952.87 50.00 L 953.96 50.00 L 955.06 50.00 L 956.15 50.00 L 957.24 50.00 L 958.33 50.00 L 959.42 50.00 L 960.51 50.00 L 961.60 50.00 L 962.69 50.00 L 963.78 50.00 L 964.87 50.00 L 965.97 50.00 L 967.06 50.00 L 968.15 50.00 L 969.24 50.00 L 970.33 50.00 L 971.42 50.00 L 972.51 50.00 L 973.60 50.00 L 974.69 50.00 L 975.79 50.00 L 976.88 50.00 L 977.97 50.00 L 979.06 50.00 L 980.15 50.00 L 981.24 50.00 L 982.33 50.00 L 983.42 50.00 L 984.51 50.00 L 985.61 50.00 L 986.70 50.00 L 987.79 50.00 L 988.88 50.00 L 989.97 50.00 L 991.06 50.00 L 992.15 50.00 L 993.24 50.00 L 994.33 50.00 L 995.43 50.00 L 996.52 50.00 L 997.61 50.00 L 998.70 50.00 L 999.79 50.00 L 1000.88 50.00 L 1001.97 50.00 L 1003.06 50.00 L 1004.15 50.00 L 1005.25 50.00 L 1006.34 50.00 L 1007.43 50.00 L 1008.52 50.00 L 1009.61 50.00 L 1010.70 50.00 L 1011.79 50.00 L 1012.88 50.00 L 1013.97 50.00 L 1015.07 50.00 L 1016.16 50.00 L 1017.25 50.00 L 1018.34 50.00 L 1019.43 50.00 L 1020.52 50.00 L 1021.61 50.00 L 1022.70 50.00 L 1023.79 50.00 L 1024.88 50.00 L 1025.98 50.00 L 1027.07 50.00 L 1028.16 50.00 L 1029.25 50.00 L 1030.34 50.00 L 1031.43 50.00 L 1032.52 50.00 L 1033.61 50.00 L 1034.70 50.00 L 1035.80 50.00 L 1036.89 50.00 L 1037.98 50.00 L 1039.07 50.00 L 1040.16 50.00 L 1041.25 50.00 L 1042.34 50.00 L 1043.43 50.00 L 1044.52 50.00 L 1045.62 50.00 L 1046.71 50.00 L 1047.80 50.00 L 1048.89 50.00 L 1049.98 50.00 L 1051.07 50.00 L 1052.16 50.00 L 1053.25 50.00 L 1054.34 50.00 L 1055.44 50.00 L 1056.53 50.00 L 1057.62 50.00 L 1058.71 50.00 L 1059.80 50.00 L 1060.89 50.00 L 1061.98 50.00 L 1063.07 50.00 L 1064.16 50.00 L 1065.26 50.00 L 1066.35 50.00 L 1067.44 50.00 L 1068.53 50.00 L 1069.62 50.00 L 1070.71 50.00 L 1071.80 50.00 L 1072.89 50.00 L 1073.98 50.00 L 1075.08 50.00 L 1076.17 50.00 L 1077.26 50.00 L 1078.35 50.00 L 1079.44 50.00 L 1080.53 50.00 L 1081.62 50.00 L 1082.71 50.00 L 1083.80 50.00 L 1084.89 50.00 L 1085.99 50.00 L 1087.08 50.00 L 1088.17 50.00 L 1089.26 50.00 L 1090.35 50.00 L 1091.44 50.00 L 1092.53 50.00 L 1093.62 50.00 L 1094.71 50.00 L 1095.81 50.00 L 1096.90 50.00 L 1097.99 50.00 L 1099.08 50.00 L 1100.17 50.00 L 1101.26 50.00 L 1102.35 50.00 L 1103.44 50.00 L 1104.53 50.00 L 1105.63 50.00 L 1106.72 50.00 L 1107.81 50.00 L 1108.90 50.00 L 1109.99 50.00 L 1111.08 50.00 L 1112.17 50.00 L 1113.26 50.00 L 1114.35 50.00 L 1115.45 50.00 L 1116.54 50.00 L 1117.63 50.00 L 1118.72 50.00 L 1119.81 50.00 L 1120.90 50.00 L 1121.99 50.00 L 1123.08 50.00 L 1124.17 50.00 L 1125.27 50.00 L 1126.36 50.00 L 1127.45 50.00 L 1128.54 50.00 L 1129.63 50.00 L 1130.72 50.00 L 1131.81 50.00 L 1132.90 50.00 L 1133.99 50.00 L 1135.09 50.00 L 1136.18 50.00 L 1137.27 50.00 L 1138.36 50.00 L 1139.45 50.00 L 1140.54 50.00 L 1141.63 50.00 L 1142.72 50.00 L 1143.81 50.00 L 1144.90 50.00 L 1146.00 50.00 L 1147.09 50.00 L 1148.18 50.00 L 1149.27 50.00 L 1150.36 50.00 L 1151.45 50.00 L 1152.54 50.00 L 1153.63 50.00 L 1154.72 50.00 L 1155.82 50.00 L 1156.91 50.00 L 1158.00 50.00 L 1159.09 50.00 L 1160.18 50.00 L 1161.27 50.00 L 1162.36 50.00 L 1163.45 50.00 L 1164.54 50.00 L 1165.64 50.00 L 1166.73 50.00 L 1167.82 50.00 L 1168.91 50.00 L 1170.00 50.00" fill="none" stroke="#1f77b4" stroke-width="2"/>
<rect x="90" y="50" width="14" height="3" fill="#1f77b4"/>
<text x="110" y="53" font-size="12" font-family="Arial">random</text>
<text x="625.0" y="696" text-anchor="middle" font-size="14" font-family="Arial">Samples</text>
<text x="18" y="350.0" text-anchor="middle" font-size="14" font-family="Arial" transform="rotate(-90 18 350.0)">Hypervolume</text>
</svg>