<svg xmlns="http://www.w3.org/2000/svg" width="1200" height="720">
<rect x="0" y="0" width="100%" height="100%" fill="white"/>
<text x="600.0" y="28" text-anchor="middle" font-size="18" font-family="Arial">Pareto Search Convergence (HV)</text>
<line x1="80" y1="50" x2="80" y2="650" stroke="#000" stroke-width="1"/>
<line x1="80" y1="650" x2="1170" y2="650" stroke="#000" stroke-width="1"/>
<line x1="80.00" y1="650" x2="80.00" y2="656" stroke="#000" stroke-width="1"/>
<text x="80.00" y="674" text-anchor="middle" font-size="12" font-family="Arial">1</text>
<line x1="80.00" y1="50" x2="80.00" y2="650" stroke="#eee" stroke-width="1"/>
<line x1="298.00" y1="650" x2="298.00" y2="656" stroke="#000" stroke-width="1"/>
<text x="298.00" y="674" text-anchor="middle" font-size="12" font-family="Arial">25</text>
<line x1="298.00" y1="50" x2="298.00" y2="650" stroke="#eee" stroke-width="1"/>
<line x1="516.00" y1="650" x2="516.00" y2="656" stroke="#000" stroke-width="1"/>
<text x="516.00" y="674" text-anchor="middle" font-size="12" font-family="Arial">49</text>
<line x1="516.00" y1="50" x2="516.00" y2="650" stroke="#eee" stroke-width="1"/>
<line x1="734.00" y1="650" x2="734.00" y2="656" stroke="#000" stroke-width="1"/>
<text x="734.00" y="674" text-anchor="middle" font-size="12" font-family="Arial">72</text>
<line x1="734.00" y1="50" x2="734.00" y2="650" stroke="#eee" stroke-width="1"/>
<line x1="952.00" y1="650" x2="952.00" y2="656" stroke="#000" stroke-width="1"/>
<text x="952.00" y="674" text-anchor="middle" font-size="12" font-family="Arial">96</text>
<line x1="952.00" y1="50" x2="952.00" y2="650" stroke="#eee" stroke-width="1"/>
<line x1="1170.00" y1="650" x2="1170.00" y2="656" stroke="#000" stroke-width="1"/>
<text x="1170.00" y="674" text-anchor="middle" font-size="12" font-family="Arial">120</text>
<line x1="1170.00" y1="50" x2="1170.00" y2="650" stroke="#eee" stroke-width="1"/>
<line x1="74" y1="650.00" x2="80" y2="650.00" stroke="#000" stroke-width="1"/>
<text x="70" y="654.00" text-anchor="end" font-size="12" font-family="Arial">0.000</text>
<line x1="80" y1="650.00" x2="1170" y2="650.00" stroke="#eee" stroke-width="1"/>
<line x1="74" y1="530.00" x2="80" y2="530.00" stroke="#000" stroke-width="1"/>
<text x="70" y="534.00" text-anchor="end" font-size="12" font-family="Arial">0.254</text>
<line x1="80" y1="530.00" x2="1170" y2="530.00" stroke="#eee" stroke-width="1"/>
<line x1="74" y1="410.00" x2="80" y2="410.00" stroke="#000" stroke-width="1"/>
<text x="70" y="414.00" text-anchor="end" font-size="12" font-family="Arial">0.509</text>
<line x1="80" y1="410.00" x2="1170" y2="410.00" stroke="#eee" stroke-width="1"/>
<line x1="74" y1="290.00" x2="80" y2="290.00" stroke="#000" stroke-width="1"/>
<text x="70" y="294.00" text-anchor="end" font-size="12" font-family="Arial">0.763</text>
<line x1="80" y1="290.00" x2="1170" y2="290.00" stroke="#eee" stroke-width="1"/>
<line x1="74" y1="170.00" x2="80" y2="170.00" stroke="#000" stroke-width="1"/>
<text x="70" y="174.00" text-anchor="end" font-size="12" font-family="Arial">1.018</text>
<line x1="80" y1="170.00" x2="1170" y2="170.00" stroke="#eee" stroke-width="1"/>
<line x1="74" y1="50.00" x2="80" y2="50.00" stroke="#000" stroke-width="1"/>
<text x="70" y="54.00" text-anchor="end" font-size="12" font-family="Arial">1.272</text>
<line x1="80" y1="50.00" x2="1170" y2="50.00" stroke="#eee" stroke-width="1"/>
<path d="M 80.00 650.00 L 89.16 650.00 L 98.32 650.00 L 107.48 650.00 L 116.64 650.00 L 125.80 650.00 L 134.96 650.00 L 144.12 650.00 L 153.28 650.00 L 162.44 170.75 L 171.60 170.75 L 180.76 170.75 L 189.92 170.75 L 199.08 170.75 L 208.24 170.75 L 217.39 170.75 L 226.55 170.75 L 235.71 170.75 L 244.87 170.75 L 254.03 131.76 L 263.19 131.76 L 272.35 131.76 L 281.51 131.76 L 290.67 131.76 L 299.83 131.76 L 308.99 131.76 L 318.15 131.76 L 327.31 131.76 L 336.47 131.76 L 345.63 131.76 L 354.79 131.76 L 363.95 131.76 L 373.11 131.76 L 382.27 131.76 L 391.43 131.76 L 400.59 131.76 L 409.75 131.76 L 418.91 131.76 L 428.07 131.76 L 437.23 129.25 L 446.39 129.25 L 455.55 129.25 L 464.71 129.25 L 473.87 129.25 L 483.03 129.25 L 492.18 129.25 L 501.34 129.25 L 510.50 129.25 L 519.66 129.25 L 528.82 129.25 L 537.98 129.25 L 547.14 129.25 L 556.30 129.25 L 565.46 129.25 L 574.62 129.25 L 583.78 129.25 L 592.94 129.25 L 602.10 129.25 L 611.26 129.25 L 620.42 129.25 L 629.58 129.25 L 638.74 129.25 L 647.90 129.25 L 657.06 129.25 L 666.22 129.25 L 675.38 129.25 L 684.54 129.25 L 693.70 129.25 L 702.86 129.25 L 712.02 91.51 L 721.18 91.51 L 730.34 91.51 L 739.50 91.51 L 748.66 91.51 L 757.82 91.51 L 766.97 91.51 L 776.13 91.51 L 785.29 91.51 L 794.45 91.51 L 803.61 91.51 L 812.77 91.51 L 821.93 91.51 L 831.09 91.51 L 840.25 91.51 L 849.41 91.51 L 858.57 91.51 L 867.73 91.51 L 876.89 91.51 L 886.05 91.51 L 895.21 90.25 L 904.37 90.25 L 913.53 90.25 L 922.69 90.25 L 931.85 90.25 L 941.01 90.25 L 950.17 90.25 L 959.33 90.25 L 968.49 90.25 L 977.65 90.25 L 986.81 90.25 L 995.97 90.25 L 1005.13 90.25 L 1014.29 90.25 L 1023.45 90.25 L 1032.61 90.25 L 1041.76 90.25 L 1050.92 90.25 L 1060.08 90.25 L 1069.24 90.25 L 1078.40 90.25 L 1087.56 90.25 L 1096.72 90.25 L 1105.88 90.25 L 1115.04 90.25 L 1124.20 90.25 L 1133.36 90.25 L 1142.52 90.25 L 1151.68 90.25 L 1160.84 90.25 L 1170.00 90.25" fill="none" stroke="#1f77b4" stroke-width="2"/>
<path d="M 80.00 650.00 L 89.16 650.00 L 98.32 650.00 L 107.48 650.00 L 116.64 650.00 L 125.80 650.00 L 134.96 650.00 L 144.12 650.00 L 153.28 650.00 L 162.44 187.11 L 171.60 187.11 L 180.76 187.11 L 189.92 187.11 L 199.08 187.11 L 208.24 187.11 L 217.39 187.11 L 226.55 187.11 L 235.71 187.11 L 244.87 187.11 L 254.03 124.21 L 263.19 124.21 L 272.35 124.21 L 281.51 124.21 L 290.67 124.21 L 299.83 124.21 L 308.99 124.21 L 318.15 124.21 L 327.31 124.21 L 336.47 124.21 L 345.63 124.21 L 354.79 124.21 L 363.95 124.21 L 373.11 124.21 L 382.27 124.21 L 391.43 124.21 L 400.59 124.21 L 409.75 124.21 L 418.91 124.21 L 428.07 124.21 L 437.23 124.21 L 446.39 124.21 L 455.55 124.21 L 464.71 124.21 L 473.87 124.21 L 483.03 124.21 L 492.18 124.21 L 501.34 124.21 L 510.50 124.21 L 519.66 124.21 L 528.82 124.21 L 537.98 124.21 L 547.14 124.21 L 556.30 124.21 L 565.46 124.21 L 574.62 124.21 L 583.78 124.21 L 592.94 124.21 L 602.10 124.21 L 611.26 124.21 L 620.42 117.92 L 629.58 117.92 L 638.74 117.92 L 647.90 117.92 L 657.06 117.92 L 666.22 117.92 L 675.38 117.92 L 684.54 117.92 L 693.70 117.92 L 702.86 117.92 L 712.02 117.92 L 721.18 117.92 L 730.34 117.92 L 739.50 117.92 L 748.66 117.92 L 757.82 117.92 L 766.97 117.92 L 776.13 117.92 L 785.29 117.92 L 794.45 117.92 L 803.61 117.92 L 812.77 117.92 L 821.93 117.92 L 831.09 117.92 L 840.25 117.92 L 849.41 117.92 L 858.57 117.92 L 867.73 117.92 L 876.89 117.92 L 886.05 117.92 L 895.21 116.67 L 904.37 116.67 L 913.53 116.67 L 922.69 116.67 L 931.85 116.67 L 941.01 116.67 L 950.17 116.67 L 959.33 116.67 L 968.49 116.67 L 977.65 116.67 L 986.81 116.67 L 995.97 116.67 L 1005.13 116.67 L 1014.29 116.67 L 1023.45 116.67 L 1032.61 116.67 L 1041.76 116.67 L 1050.92 116.67 L 1060.08 116.67 L 1069.24 116.67 L 1078.40 116.67 L 1087.56 116.67 L 1096.72 116.67 L 1105.88 116.67 L 1115.04 116.67 L 1124.20 116.67 L 1133.36 116.67 L 1142.52 116.67 L 1151.68 116.67 L 1160.84 116.67 L 1170.00 116.67" fill="none" stroke="#ff7f0e" stroke-width="2"/>
<path d="M 80.00 650.00 L 89.16 650.00 L 98.32 650.00 L 107.48 650.00 L 116.64 650.00 L 125.80 650.00 L 134.96 650.00 L 144.12 650.00 L 153.28 650.00 L 162.44 163.21 L 171.60 163.21 L 180.76 163.21 L 189.92 163.21 L 199.08 163.21 L 208.24 163.21 L 217.39 163.21 L 226.55 163.21 L 235.71 163.21 L 244.87 163.21 L 254.03 161.95 L 263.19 161.95 L 272.35 161.95 L 281.51 161.95 L 290.67 161.95 L 299.83 161.95 L 308.99 161.95 L 318.15 161.95 L 327.31 161.95 L 336.47 161.95 L 345.63 160.69 L 354.79 160.69 L 363.95 160.69 L 373.11 160.69 L 382.27 160.69 L 391.43 160.69 L 400.59 160.69 L 409.75 160.69 L 418.91 160.69 L 428.07 160.69 L 437.23 160.69 L 446.39 160.69 L 455.55 160.69 L 464.71 160.69 L 473.87 160.69 L 483.03 160.69 L 492.18 160.69 L 501.34 160.69 L 510.50 160.69 L 519.66 160.69 L 528.82 155.66 L 537.98 155.66 L 547.14 155.66 L 556.30 155.66 L 565.46 155.66 L 574.62 155.66 L 583.78 155.66 L 592.94 155.66 L 602.10 155.66 L 611.26 155.66 L 620.42 155.66 L 629.58 155.66 L 638.74 155.66 L 647.90 155.66 L 657.06 155.66 L 666.22 155.66 L 675.38 155.66 L 684.54 155.66 L 693.70 155.66 L 702.86 155.66 L 712.02 136.79 L 721.18 136.79 L 730.34 136.79 L 739.50 136.79 L 748.66 136.79 L 757.82 136.79 L 766.97 136.79 L 776.13 136.79 L 785.29 136.79 L 794.45 136.79 L 803.61 136.79 L 812.77 136.79 L 821.93 136.79 L 831.09 136.79 L 840.25 136.79 L 849.41 136.79 L 858.57 136.79 L 867.73 136.79 L 876.89 136.79 L 886.05 136.79 L 895.21 136.79 L 904.37 136.79 L 913.53 136.79 L 922.69 136.79 L 931.85 136.79 L 941.01 136.79 L 950.17 136.79 L 959.33 136.79 L 968.49 136.79 L 977.65 136.79 L 986.81 135.53 L 995.97 135.53 L 1005.13 135.53 L 1014.29 135.53 L 1023.45 135.53 L 1032.61 135.53 L 1041.76 135.53 L 1050.92 135.53 L 1060.08 135.53 L 1069.24 135.53 L 1078.40 135.53 L 1087.56 135.53 L 1096.72 135.53 L 1105.88 135.53 L 1115.04 135.53 L 1124.20 135.53 L 1133.36 135.53 L 1142.52 135.53 L 1151.68 135.53 L 1160.84 135.53 L 1170.00 135.53" fill="none" stroke="#2ca02c" stroke-width="2"/>
<path d="M 80.00 650.00 L 89.16 650.00 L 98.32 650.00 L 107.48 650.00 L 116.64 650.00 L 125.80 650.00 L 134.96 650.00 L 144.12 650.00 L 153.28 650.00 L 162.44 163.21 L 171.60 163.21 L 180.76 163.21 L 189.92 163.21 L 199.08 163.21 L 208.24 163.21 L 217.39 163.21 L 226.55 163.21 L 235.71 163.21 L 244.87 163.21 L 254.03 153.14 L 263.19 153.14 L 272.35 153.14 L 281.51 153.14 L 290.67 153.14 L 299.83 153.14 L 308.99 153.14 L 318.15 153.14 L 327.31 153.14 L 336.47 153.14 L 345.63 151.89 L 354.79 151.89 L 363.95 151.89 L 373.11 151.89 L 382.27 151.89 L 391.43 151.89 L 400.59 151.89 L 409.75 151.89 L 418.91 151.89 L 428.07 151.89 L 437.23 151.89 L 446.39 151.89 L 455.55 151.89 L 464.71 151.89 L 473.87 151.89 L 483.03 151.89 L 492.18 151.89 L 501.34 151.89 L 510.50 151.89 L 519.66 151.89 L 528.82 151.89 L 537.98 151.89 L 547.14 151.89 L 556.30 151.89 L 565.46 151.89 L 574.62 151.89 L 583.78 151.89 L 592.94 151.89 L 602.10 151.89 L 611.26 151.89 L 620.42 144.34 L 629.58 144.34 L 638.74 144.34 L 647.90 144.34 L 657.06 144.34 L 666.22 144.34 L 675.38 144.34 L 684.54 144.34 L 693.70 144.34 L 702.86 144.34 L 712.02 144.34 L 721.18 144.34 L 730.34 144.34 L 739.50 144.34 L 748.66 144.34 L 757.82 144.34 L 766.97 144.34 L 776.13 144.34 L 785.29 144.34 L 794.45 144.34 L 803.61 143.08 L 812.77 143.08 L 821.93 143.08 L 831.09 143.08 L 840.25 143.08 L 849.41 143.08 L 858.57 143.08 L 867.73 143.08 L 876.89 143.08 L 886.05 143.08 L 895.21 141.82 L 904.37 141.82 L 913.53 141.82 L 922.69 141.82 L 931.85 141.82 L 941.01 141.82 L 950.17 141.82 L 959.33 141.82 L 968.49 141.82 L 977.65 141.82 L 986.81 141.82 L 995.97 141.82 L 1005.13 141.82 L 1014.29 141.82 L 1023.45 141.82 L 1032.61 141.82 L 1041.76 141.82 L 1050.92 141.82 L 1060.08 141.82 L 1069.24 141.82 L 1078.40 134.28 L 1087.56 134.28 L 1096.72 134.28 L 1105.88 134.28 L 1115.04 134.28 L 1124.20 134.28 L 1133.36 134.28 L 1142.52 134.28 L 1151.68 134.28 L 1160.84 134.28 L 1170.00 134.28" fill="none" stroke="#d62728" stroke-width="2"/>
<path d="M 80.00 650.00 L 89.16 650.00 L 98.32 650.00 L 107.48 650.00 L 116.64 650.00 L 125.80 650.00 L 134.96 650.00 L 144.12 650.00 L 153.28 650.00 L 162.44 141.82 L 171.60 141.82 L 180.76 141.82 L 189.92 141.82 L 199.08 141.82 L 208.24 141.82 L 217.39 141.82 L 226.55 141.82 L 235.71 141.82 L 244.87 141.82 L 254.03 138.05 L 263.19 138.05 L 272.35 138.05 L 281.51 138.05 L 290.67 138.05 L 299.83 138.05 L 308.99 138.05 L 318.15 138.05 L 327.31 138.05 L 336.47 138.05 L 345.63 135.53 L 354.79 135.53 L 363.95 135.53 L 373.11 135.53 L 382.27 135.53 L 391.43 135.53 L 400.59 135.53 L 409.75 135.53 L 418.91 135.53 L 428.07 135.53 L 437.23 114.15 L 446.39 114.15 L 455.55 114.15 L 464.71 114.15 L 473.87 114.15 L 483.03 114.15 L 492.18 114.15 L 501.34 114.15 L 510.50 114.15 L 519.66 114.15 L 528.82 95.28 L 537.98 95.28 L 547.14 95.28 L 556.30 95.28 L 565.46 95.28 L 574.62 95.28 L 583.78 95.28 L 592.94 95.28 L 602.10 95.28 L 611.26 95.28 L 620.42 95.28 L 629.58 95.28 L 638.74 95.28 L 647.90 95.28 L 657.06 95.28 L 666.22 95.28 L 675.38 95.28 L 684.54 95.28 L 693.70 95.28 L 702.86 95.28 L 712.02 95.28 L 721.18 95.28 L 730.34 95.28 L 739.50 95.28 L 748.66 95.28 L 757.82 95.28 L 766.97 95.28 L 776.13 95.28 L 785.29 95.28 L 794.45 95.28 L 803.61 90.25 L 812.77 90.25 L 821.93 90.25 L 831.09 90.25 L 840.25 90.25 L 849.41 90.25 L 858.57 90.25 L 867.73 90.25 L 876.89 90.25 L 886.05 90.25 L 895.21 87.74 L 904.37 87.74 L 913.53 87.74 L 922.69 87.74 L 931.85 87.74 L 941.01 87.74 L 950.17 87.74 L 959.33 87.74 L 968.49 87.74 L 977.65 87.74 L 986.81 87.74 L 995.97 87.74 L 1005.13 87.74 L 1014.29 87.74 L 1023.45 87.74 L 1032.61 87.74 L 1041.76 87.74 L 1050.92 87.74 L 1060.08 87.74 L 1069.24 87.74 L 1078.40 76.42 L 1087.56 76.42 L 1096.72 76.42 L 1105.88 76.42 L 1115.04 76.42 L 1124.20 76.42 L 1133.36 76.42 L 1142.52 76.42 L 1151.68 76.42 L 1160.84 76.42 L 1170.00 50.00" fill="none" stroke="#9467bd" stroke-width="2"/>
<path d="M 80.00 650.00 L 89.16 650.00 L 98.32 650.00 L 107.48 650.00 L 116.64 650.00 L 125.80 650.00 L 134.96 650.00 L 144.12 650.00 L 153.28 650.00 L 162.44 144.34 L 171.60 144.34 L 180.76 144.34 L 189.92 144.34 L 199.08 144.34 L 208.24 144.34 L 217.39 144.34 L 226.55 144.34 L 235.71 144.34 L 244.87 144.34 L 254.03 139.31 L 263.19 139.31 L 272.35 139.31 L 281.51 139.31 L 290.67 139.31 L 299.83 139.31 L 308.99 139.31 L 318.15 139.31 L 327.31 139.31 L 336.47 139.31 L 345.63 136.79 L 354.79 136.79 L 363.95 136.79 L 373.11 136.79 L 382.27 136.79 L 391.43 136.79 L 400.59 136.79 L 409.75 136.79 L 418.91 136.79 L 428.07 136.79 L 437.23 136.79 L 446.39 136.79 L 455.55 136.79 L 464.71 136.79 L 473.87 136.79 L 483.03 136.79 L 492.18 136.79 L 501.34 136.79 L 510.50 136.79 L 519.66 136.79 L 528.82 136.79 L 537.98 136.79 L 547.14 136.79 L 556.30 136.79 L 565.46 136.79 L 574.62 136.79 L 583.78 136.79 L 592.94 136.79 L 602.10 136.79 L 611.26 136.79 L 620.42 135.53 L 629.58 135.53 L 638.74 135.53 L 647.90 135.53 L 657.06 135.53 L 666.22 135.53 L 675.38 135.53 L 684.54 135.53 L 693.70 135.53 L 702.86 135.53 L 712.02 135.53 L 721.18 135.53 L 730.34 135.53 L 739.50 135.53 L 748.66 135.53 L 757.82 135.53 L 766.97 135.53 L 776.13 135.53 L 785.29 135.53 L 794.45 135.53 L 803.61 135.53 L 812.77 135.53 L 821.93 135.53 L 831.09 135.53 L 840.25 135.53 L 849.41 135.53 L 858.57 135.53 L 867.73 135.53 L 876.89 135.53 L 886.05 135.53 L 895.21 87.74 L 904.37 87.74 L 913.53 87.74 L 922.69 87.74 L 931.85 87.74 L 941.01 87.74 L 950.17 87.74 L 959.33 87.74 L 968.49 87.74 L 977.65 87.74 L 986.81 77.67 L 995.97 77.67 L 1005.13 77.67 L 1014.29 77.67 L 1023.45 77.67 L 1032.61 77.67 L 1041.76 77.67 L 1050.92 77.67 L 1060.08 77.67 L 1069.24 77.67 L 1078.40 75.16 L 1087.56 75.16 L 1096.72 75.16 L 1105.88 75.16 L 1115.04 75.16 L 1124.20 75.16 L 1133.36 75.16 L 1142.52 75.16 L 1151.68 75.16 L 1160.84 75.16 L 1170.00 75.16" fill="none" stroke="#8c564b" stroke-width="2"/>
<path d="M 80.00 650.00 L 89.16 650.00 L 98.32 650.00 L 107.48 650.00 L 116.64 650.00 L 125.80 650.00 L 134.96 650.00 L 144.12 650.00 L 153.28 650.00 L 162.44 161.95 L 171.60 161.95 L 180.76 161.95 L 189.92 161.95 L 199.08 161.95 L 208.24 161.95 L 217.39 161.95 L 226.55 161.95 L 235.71 161.95 L 244.87 161.95 L 254.03 134.28 L 263.19 134.28 L 272.35 134.28 L 281.51 134.28 L 290.67 134.28 L 299.83 134.28 L 308.99 134.28 L 318.15 134.28 L 327.31 134.28 L 336.47 134.28 L 345.63 133.02 L 354.79 133.02 L 363.95 133.02 L 373.11 133.02 L 382.27 133.02 L 391.43 133.02 L 400.59 133.02 L 409.75 133.02 L 418.91 133.02 L 428.07 133.02 L 437.23 129.25 L 446.39 129.25 L 455.55 129.25 L 464.71 129.25 L 473.87 129.25 L 483.03 129.25 L 492.18 129.25 L 501.34 129.25 L 510.50 129.25 L 519.66 129.25 L 528.82 125.47 L 537.98 125.47 L 547.14 125.47 L 556.30 125.47 L 565.46 125.47 L 574.62 125.47 L 583.78 125.47 L 592.94 125.47 L 602.10 125.47 L 611.26 125.47 L 620.42 124.21 L 629.58 124.21 L 638.74 124.21 L 647.90 124.21 L 657.06 124.21 L 666.22 124.21 L 675.38 124.21 L 684.54 124.21 L 693.70 124.21 L 702.86 124.21 L 712.02 124.21 L 721.18 124.21 L 730.34 124.21 L 739.50 124.21 L 748.66 124.21 L 757.82 124.21 L 766.97 124.21 L 776.13 124.21 L 785.29 124.21 L 794.45 124.21 L 803.61 115.41 L 812.77 115.41 L 821.93 115.41 L 831.09 115.41 L 840.25 115.41 L 849.41 115.41 L 858.57 115.41 L 867.73 115.41 L 876.89 115.41 L 886.05 115.41 L 895.21 115.41 L 904.37 115.41 L 913.53 115.41 L 922.69 115.41 L 931.85 115.41 L 941.01 115.41 L 950.17 115.41 L 959.33 115.41 L 968.49 115.41 L 977.65 115.41 L 986.81 107.86 L 995.97 107.86 L 1005.13 107.86 L 1014.29 107.86 L 1023.45 107.86 L 1032.61 107.86 L 1041.76 107.86 L 1050.92 107.86 L 1060.08 107.86 L 1069.24 107.86 L 1078.40 106.60 L 1087.56 106.60 L 1096.72 106.60 L 1105.88 106.60 L 1115.04 106.60 L 1124.20 106.60 L 1133.36 106.60 L 1142.52 106.60 L 1151.68 106.60 L 1160.84 106.60 L 1170.00 106.60" fill="none" stroke="#e377c2" stroke-width="2"/>
<path d="M 80.00 650.00 L 89.16 650.00 L 98.32 650.00 L 107.48 650.00 L 116.64 650.00 L 125.80 650.00 L 134.96 650.00 L 144.12 650.00 L 153.28 650.00 L 162.44 159.43 L 171.60 159.43 L 180.76 159.43 L 189.92 159.43 L 199.08 159.43 L 208.24 159.43 L 217.39 159.43 L 226.55 159.43 L 235.71 159.43 L 244.87 159.43 L 254.03 159.43 L 263.19 159.43 L 272.35 159.43 L 281.51 159.43 L 290.67 159.43 L 299.83 159.43 L 308.99 159.43 L 318.15 159.43 L 327.31 159.43 L 336.47 159.43 L 345.63 158.18 L 354.79 158.18 L 363.95 158.18 L 373.11 158.18 L 382.27 158.18 L 391.43 158.18 L 400.59 158.18 L 409.75 158.18 L 418.91 158.18 L 428.07 158.18 L 437.23 156.92 L 446.39 156.92 L 455.55 156.92 L 464.71 156.92 L 473.87 156.92 L 483.03 156.92 L 492.18 156.92 L 501.34 156.92 L 510.50 156.92 L 519.66 156.92 L 528.82 148.11 L 537.98 148.11 L 547.14 148.11 L 556.30 148.11 L 565.46 148.11 L 574.62 148.11 L 583.78 148.11 L 592.94 148.11 L 602.10 148.11 L 611.26 148.11 L 620.42 148.11 L 629.58 148.11 L 638.74 148.11 L 647.90 148.11 L 657.06 148.11 L 666.22 148.11 L 675.38 148.11 L 684.54 148.11 L 693.70 148.11 L 702.86 148.11 L 712.02 148.11 L 721.18 148.11 L 730.34 148.11 L 739.50 148.11 L 748.66 148.11 L 757.82 148.11 L 766.97 148.11 L 776.13 148.11 L 785.29 148.11 L 794.45 148.11 L 803.61 140.57 L 812.77 140.57 L 821.93 140.57 L 831.09 140.57 L 840.25 140.57 L 849.41 140.57 L 858.57 140.57 L 867.73 140.57 L 876.89 140.57 L 886.05 140.57 L 895.21 140.57 L 904.37 140.57 L 913.53 140.57 L 922.69 140.57 L 931.85 140.57 L 941.01 140.57 L 950.17 140.57 L 959.33 140.57 L 968.49 140.57 L 977.65 140.57 L 986.81 111.64 L 995.97 111.64 L 1005.13 111.64 L 1014.29 111.64 L 1023.45 111.64 L 1032.61 111.64 L 1041.76 111.64 L 1050.92 111.64 L 1060.08 111.64 L 1069.24 111.64 L 1078.40 105.35 L 1087.56 105.35 L 1096.72 105.35 L 1105.88 105.35 L 1115.04 105.35 L 1124.20 105.35 L 1133.36 105.35 L 1142.52 105.35 L 1151.68 105.35 L 1160.84 105.35 L 1170.00 104.09" fill="none" stroke="#7f7f7f" stroke-width="2"/>
<path d="M 80.00 650.00 L 89.16 650.00 L 98.32 650.00 L 107.48 650.00 L 116.64 650.00 L 125.80 650.00 L 134.96 650.00 L 144.12 650.00 L 153.28 650.00 L 162.44 140.57 L 171.60 140.57 L 180.76 140.57 L 189.92 140.57 L 199.08 140.57 L 208.24 140.57 L 217.39 140.57 L 226.55 140.57 L 235.71 140.57 L 244.87 140.57 L 254.03 140.57 L 263.19 140.57 L 272.35 140.57 L 281.51 140.57 L 290.67 140.57 L 299.83 140.57 L 308.99 140.57 L 318.15 140.57 L 327.31 140.57 L 336.47 140.57 L 345.63 140.57 L 354.79 140.57 L 363.95 140.57 L 373.11 140.57 L 382.27 140.57 L 391.43 140.57 L 400.59 140.57 L 409.75 140.57 L 418.91 140.57 L 428.07 140.57 L 437.23 121.70 L 446.39 121.70 L 455.55 121.70 L 464.71 121.70 L 473.87 121.70 L 483.03 121.70 L 492.18 121.70 L 501.34 121.70 L 510.50 121.70 L 519.66 121.70 L 528.82 95.28 L 537.98 95.28 L 547.14 95.28 L 556.30 95.28 L 565.46 95.28 L 574.62 95.28 L 583.78 95.28 L 592.94 95.28 L 602.10 95.28 L 611.26 95.28 L 620.42 95.28 L 629.58 95.28 L 638.74 95.28 L 647.90 95.28 L 657.06 95.28 L 666.22 95.28 L 675.38 95.28 L 684.54 95.28 L 693.70 95.28 L 702.86 95.28 L 712.02 95.28 L 721.18 95.28 L 730.34 95.28 L 739.50 95.28 L 748.66 95.28 L 757.82 95.28 L 766.97 95.28 L 776.13 95.28 L 785.29 95.28 L 794.45 95.28 L 803.61 95.28 L 812.77 95.28 L 821.93 95.28 L 831.09 95.28 L 840.25 95.28 L 849.41 95.28 L 858.57 95.28 L 867.73 95.28 L 876.89 95.28 L 886.05 95.28 L 895.21 95.28 L 904.37 95.28 L 913.53 95.28 L 922.69 95.28 L 931.85 95.28 L 941.01 95.28 L 950.17 95.28 L 959.33 95.28 L 968.49 95.28 L 977.65 95.28 L 986.81 95.28 L 995.97 95.28 L 1005.13 95.28 L 1014.29 95.28 L 1023.45 95.28 L 1032.61 95.28 L 1041.76 95.28 L 1050.92 95.28 L 1060.08 95.28 L 1069.24 95.28 L 1078.40 95.28 L 1087.56 95.28 L 1096.72 95.28 L 1105.88 95.28 L 1115.04 95.28 L 1124.20 95.28 L 1133.36 95.28 L 1142.52 95.28 L 1151.68 95.28 L 1160.84 95.28 L 1170.00 85.22" fill="none" stroke="#bcbd22" stroke-width="2"/>
<rect x="90" y="50" width="14" height="3" fill="#1f77b4"/>
<text x="110" y="53" font-size="12" font-family="Arial">bo</text>
<rect x="90" y="68" width="14" height="3" fill="#ff7f0e"/>
<text x="110" y="71" font-size="12" font-family="Arial">ga</text>
<rect x="90" y="86" width="14" height="3" fill="#2ca02c"/>
<text x="110" y="89" font-size="12" font-family="Arial">ggps</text>
<rect x="90" y="104" width="14" height="3" fill="#d62728"/>
<text x="110" y="107" font-size="12" font-family="Arial">ggps_hub_only</text>
<rect x="90" y="122" width="14" height="3" fill="#9467bd"/>
<text x="110" y="125" font-size="12" font-family="Arial">ggps_neighbor_only</text>
<rect x="90" y="140" width="14" height="3" fill="#8c564b"/>
<text x="110" y="143" font-size="12" font-family="Arial">ggps_no_centrality</text>
<rect x="90" y="158" width="14" height="3" fill="#e377c2"/>
<text x="110" y="161" font-size="12" font-family="Arial">ggps_nonhub_subspace</text>
<rect x="90" y="176" width="14" height="3" fill="#7f7f7f"/>
<text x="110" y="179" font-size="12" font-family="Arial">ggps_random_subspace</text>
<rect x="90" y="194" width="14" height="3" fill="#bcbd22"/>
<text x="110" y="197" font-size="12" font-family="Arial">random</text>
<text x="625.0" y="696" text-anchor="middle" font-size="14" font-family="Arial">Samples</text>
<text x="18" y="350.0" text-anchor="middle" font-size="14" font-family="Arial" transform="rotate(-90 18 350.0)">Hypervolume</text>
</svg>