<svg xmlns="http://www.w3.org/2000/svg" width="1200" height="720">
<rect x="0" y="0" width="100%" height="100%" fill="white"/>
<text x="600.0" y="28" text-anchor="middle" font-size="18" font-family="Arial">Pareto Search Convergence (HV)</text>
<line x1="80" y1="50" x2="80" y2="650" stroke="#000" stroke-width="1"/>
<line x1="80" y1="650" x2="1170" y2="650" stroke="#000" stroke-width="1"/>
<line x1="80.00" y1="650" x2="80.00" y2="656" stroke="#000" stroke-width="1"/>
<text x="80.00" y="674" text-anchor="middle" font-size="12" font-family="Arial">1</text>
<line x1="80.00" y1="50" x2="80.00" y2="650" stroke="#eee" stroke-width="1"/>
<line x1="298.00" y1="650" x2="298.00" y2="656" stroke="#000" stroke-width="1"/>
<text x="298.00" y="674" text-anchor="middle" font-size="12" font-family="Arial">201</text>
<line x1="298.00" y1="50" x2="298.00" y2="650" stroke="#eee" stroke-width="1"/>
<line x1="516.00" y1="650" x2="516.00" y2="656" stroke="#000" stroke-width="1"/>
<text x="516.00" y="674" text-anchor="middle" font-size="12" font-family="Arial">401</text>
<line x1="516.00" y1="50" x2="516.00" y2="650" stroke="#eee" stroke-width="1"/>
<line x1="734.00" y1="650" x2="734.00" y2="656" stroke="#000" stroke-width="1"/>
<text x="734.00" y="674" text-anchor="middle" font-size="12" font-family="Arial">600</text>
<line x1="734.00" y1="50" x2="734.00" y2="650" stroke="#eee" stroke-width="1"/>
<line x1="952.00" y1="650" x2="952.00" y2="656" stroke="#000" stroke-width="1"/>
<text x="952.00" y="674" text-anchor="middle" font-size="12" font-family="Arial">800</text>
<line x1="952.00" y1="50" x2="952.00" y2="650" stroke="#eee" stroke-width="1"/>
<line x1="1170.00" y1="650" x2="1170.00" y2="656" stroke="#000" stroke-width="1"/>
<text x="1170.00" y="674" text-anchor="middle" font-size="12" font-family="Arial">1000</text>
<line x1="1170.00" y1="50" x2="1170.00" y2="650" stroke="#eee" stroke-width="1"/>
<line x1="74" y1="650.00" x2="80" y2="650.00" stroke="#000" stroke-width="1"/>
<text x="70" y="654.00" text-anchor="end" font-size="12" font-family="Arial">0.000</text>
<line x1="80" y1="650.00" x2="1170" y2="650.00" stroke="#eee" stroke-width="1"/>
<line x1="74" y1="530.00" x2="80" y2="530.00" stroke="#000" stroke-width="1"/>
<text x="70" y="534.00" text-anchor="end" font-size="12" font-family="Arial">0.227</text>
<line x1="80" y1="530.00" x2="1170" y2="530.00" stroke="#eee" stroke-width="1"/>
<line x1="74" y1="410.00" x2="80" y2="410.00" stroke="#000" stroke-width="1"/>
<text x="70" y="414.00" text-anchor="end" font-size="12" font-family="Arial">0.455</text>
<line x1="80" y1="410.00" x2="1170" y2="410.00" stroke="#eee" stroke-width="1"/>
<line x1="74" y1="290.00" x2="80" y2="290.00" stroke="#000" stroke-width="1"/>
<text x="70" y="294.00" text-anchor="end" font-size="12" font-family="Arial">0.682</text>
<line x1="80" y1="290.00" x2="1170" y2="290.00" stroke="#eee" stroke-width="1"/>
<line x1="74" y1="170.00" x2="80" y2="170.00" stroke="#000" stroke-width="1"/>
<text x="70" y="174.00" text-anchor="end" font-size="12" font-family="Arial">0.910</text>
<line x1="80" y1="170.00" x2="1170" y2="170.00" stroke="#eee" stroke-width="1"/>
<line x1="74" y1="50.00" x2="80" y2="50.00" stroke="#000" stroke-width="1"/>
<text x="70" y="54.00" text-anchor="end" font-size="12" font-family="Arial">1.137</text>
<line x1="80" y1="50.00" x2="1170" y2="50.00" stroke="#eee" stroke-width="1"/>
<line x1="80" y1="57.55" x2="1170" y2="57.55" stroke="#333" stroke-dasharray="6,4" stroke-width="1"/>
<text x="1168" y="51.55" text-anchor="end" font-size="12" font-family="Arial">hv_ref=1.123</text>
<line x1="80" y1="87.17" x2="1170" y2="87.17" stroke="#666" stroke-dasharray="3,4" stroke-width="1"/>
<text x="1168" y="81.17" text-anchor="end" font-size="12" font-family="Arial">0.95·hv_ref</text>
<path d="M 80.00 85.91 L 81.09 83.63 L 82.18 82.12 L 83.27 82.12 L 84.36 72.76 L 85.46 72.76 L 86.55 72.76 L 87.64 64.65 L 88.73 64.65 L 89.82 64.65 L 90.91 64.65 L 92.00 64.65 L 93.09 64.65 L 94.18 64.65 L 95.28 64.65 L 96.37 64.65 L 97.46 64.65 L 98.55 64.65 L 99.64 55.60 L 100.73 55.60 L 101.82 55.60 L 102.91 55.60 L 104.00 55.60 L 105.10 55.60 L 106.19 55.60 L 107.28 55.60 L 108.37 55.60 L 109.46 55.60 L 110.55 55.60 L 111.64 55.60 L 112.73 55.60 L 113.82 55.60 L 114.91 55.60 L 116.01 55.60 L 117.10 55.60 L 118.19 55.60 L 119.28 55.60 L 120.37 55.60 L 121.46 55.60 L 122.55 55.60 L 123.64 55.60 L 124.73 55.60 L 125.83 55.60 L 126.92 55.60 L 128.01 55.60 L 129.10 55.60 L 130.19 55.60 L 131.28 55.60 L 132.37 55.60 L 133.46 55.60 L 134.55 55.60 L 135.65 55.60 L 136.74 55.60 L 137.83 55.60 L 138.92 55.60 L 140.01 55.60 L 141.10 55.60 L 142.19 55.60 L 143.28 55.60 L 144.37 55.60 L 145.47 55.60 L 146.56 55.60 L 147.65 55.60 L 148.74 55.60 L 149.83 55.60 L 150.92 55.60 L 152.01 55.60 L 153.10 55.60 L 154.19 55.60 L 155.29 55.60 L 156.38 55.60 L 157.47 55.60 L 158.56 55.60 L 159.65 55.60 L 160.74 55.60 L 161.83 55.60 L 162.92 55.60 L 164.01 55.60 L 165.11 55.60 L 166.20 55.60 L 167.29 55.60 L 168.38 55.60 L 169.47 55.60 L 170.56 55.60 L 171.65 55.60 L 172.74 55.60 L 173.83 55.60 L 174.92 55.60 L 176.02 55.60 L 177.11 55.60 L 178.20 55.60 L 179.29 55.60 L 180.38 55.60 L 181.47 55.60 L 182.56 55.60 L 183.65 85.45 L 184.74 85.45 L 185.84 85.45 L 186.93 85.45 L 188.02 85.45 L 189.11 85.45 L 190.20 85.45 L 191.29 85.45 L 192.38 85.45 L 193.47 85.45 L 194.56 85.45 L 195.66 85.45 L 196.75 85.45 L 197.84 85.45 L 198.93 85.45 L 200.02 85.45 L 201.11 85.45 L 202.20 85.45 L 203.29 85.45 L 204.38 85.45 L 205.48 85.45 L 206.57 85.45 L 207.66 85.45 L 208.75 85.45 L 209.84 85.45 L 210.93 85.45 L 212.02 85.45 L 213.11 85.45 L 214.20 85.45 L 215.30 85.45 L 216.39 85.45 L 217.48 85.45 L 218.57 85.45 L 219.66 85.45 L 220.75 85.45 L 221.84 85.45 L 222.93 85.45 L 224.02 85.45 L 225.12 85.45 L 226.21 85.45 L 227.30 85.45 L 228.39 85.45 L 229.48 85.45 L 230.57 85.45 L 231.66 85.45 L 232.75 59.29 L 233.84 59.29 L 234.93 59.29 L 236.03 59.29 L 237.12 59.29 L 238.21 59.29 L 239.30 59.29 L 240.39 59.29 L 241.48 59.29 L 242.57 59.29 L 243.66 59.29 L 244.75 59.29 L 245.85 59.29 L 246.94 59.29 L 248.03 59.29 L 249.12 59.29 L 250.21 59.29 L 251.30 59.29 L 252.39 59.29 L 253.48 59.29 L 254.57 59.29 L 255.67 59.29 L 256.76 59.29 L 257.85 59.29 L 258.94 59.29 L 260.03 59.29 L 261.12 59.29 L 262.21 59.29 L 263.30 59.29 L 264.39 59.29 L 265.49 59.29 L 266.58 59.29 L 267.67 59.29 L 268.76 59.29 L 269.85 59.29 L 270.94 59.29 L 272.03 59.29 L 273.12 59.29 L 274.21 59.29 L 275.31 59.29 L 276.40 58.52 L 277.49 58.52 L 278.58 58.52 L 279.67 58.52 L 280.76 58.52 L 281.85 58.52 L 282.94 58.52 L 284.03 58.52 L 285.13 58.52 L 286.22 58.52 L 287.31 58.52 L 288.40 58.52 L 289.49 58.52 L 290.58 58.52 L 291.67 58.52 L 292.76 58.52 L 293.85 58.52 L 294.94 58.52 L 296.04 58.52 L 297.13 58.52 L 298.22 58.52 L 299.31 58.62 L 300.40 58.62 L 301.49 58.62 L 302.58 58.62 L 303.67 58.62 L 304.76 58.62 L 305.86 58.62 L 306.95 58.62 L 308.04 58.62 L 309.13 58.62 L 310.22 57.86 L 311.31 57.86 L 312.40 57.86 L 313.49 57.86 L 314.58 57.86 L 315.68 57.86 L 316.77 57.86 L 317.86 57.86 L 318.95 57.86 L 320.04 57.86 L 321.13 57.86 L 322.22 57.86 L 323.31 57.86 L 324.40 57.86 L 325.50 57.86 L 326.59 57.86 L 327.68 57.86 L 328.77 57.86 L 329.86 57.86 L 330.95 57.86 L 332.04 57.86 L 333.13 57.86 L 334.22 57.86 L 335.32 57.86 L 336.41 57.86 L 337.50 57.86 L 338.59 57.86 L 339.68 57.86 L 340.77 57.86 L 341.86 57.86 L 342.95 57.86 L 344.04 57.86 L 345.14 57.86 L 346.23 57.86 L 347.32 57.86 L 348.41 57.86 L 349.50 57.86 L 350.59 57.86 L 351.68 57.86 L 352.77 57.86 L 353.86 57.86 L 354.95 57.86 L 356.05 57.86 L 357.14 57.86 L 358.23 57.86 L 359.32 57.86 L 360.41 57.86 L 361.50 57.86 L 362.59 57.86 L 363.68 57.86 L 364.77 57.86 L 365.87 57.86 L 366.96 57.86 L 368.05 57.86 L 369.14 57.86 L 370.23 57.86 L 371.32 57.86 L 372.41 50.00 L 373.50 50.09 L 374.59 50.09 L 375.69 50.09 L 376.78 50.09 L 377.87 50.09 L 378.96 50.09 L 380.05 50.09 L 381.14 50.09 L 382.23 50.09 L 383.32 50.09 L 384.41 50.09 L 385.51 50.09 L 386.60 50.09 L 387.69 50.09 L 388.78 50.09 L 389.87 50.09 L 390.96 50.09 L 392.05 50.09 L 393.14 50.09 L 394.23 50.09 L 395.33 50.09 L 396.42 50.09 L 397.51 50.09 L 398.60 50.09 L 399.69 50.09 L 400.78 50.09 L 401.87 50.09 L 402.96 50.09 L 404.05 50.09 L 405.15 50.09 L 406.24 50.09 L 407.33 50.09 L 408.42 50.09 L 409.51 50.09 L 410.60 50.09 L 411.69 50.09 L 412.78 50.09 L 413.87 50.09 L 414.96 50.09 L 416.06 50.09 L 417.15 50.09 L 418.24 50.09 L 419.33 50.09 L 420.42 50.09 L 421.51 50.09 L 422.60 50.09 L 423.69 50.09 L 424.78 50.09 L 425.88 50.09 L 426.97 50.09 L 428.06 50.09 L 429.15 50.09 L 430.24 50.09 L 431.33 50.09 L 432.42 50.09 L 433.51 50.09 L 434.60 50.09 L 435.70 50.09 L 436.79 50.09 L 437.88 50.09 L 438.97 50.09 L 440.06 50.09 L 441.15 50.09 L 442.24 50.09 L 443.33 50.09 L 444.42 50.09 L 445.52 50.09 L 446.61 50.09 L 447.70 50.09 L 448.79 50.09 L 449.88 50.09 L 450.97 50.09 L 452.06 50.09 L 453.15 50.09 L 454.24 50.09 L 455.34 50.09 L 456.43 50.09 L 457.52 50.09 L 458.61 50.09 L 459.70 50.09 L 460.79 50.09 L 461.88 50.09 L 462.97 50.09 L 464.06 50.09 L 465.16 50.09 L 466.25 50.09 L 467.34 50.09 L 468.43 50.09 L 469.52 50.09 L 470.61 50.09 L 471.70 50.09 L 472.79 50.09 L 473.88 50.09 L 474.97 50.09 L 476.07 50.09 L 477.16 50.09 L 478.25 50.09 L 479.34 50.09 L 480.43 50.09 L 481.52 50.09 L 482.61 50.09 L 483.70 50.09 L 484.79 50.09 L 485.89 50.09 L 486.98 50.09 L 488.07 50.09 L 489.16 50.09 L 490.25 50.09 L 491.34 50.09 L 492.43 50.09 L 493.52 50.09 L 494.61 50.09 L 495.71 50.09 L 496.80 50.09 L 497.89 50.09 L 498.98 50.09 L 500.07 50.09 L 501.16 50.09 L 502.25 50.09 L 503.34 50.09 L 504.43 50.09 L 505.53 50.09 L 506.62 50.09 L 507.71 50.11 L 508.80 50.11 L 509.89 50.11 L 510.98 50.11 L 512.07 50.11 L 513.16 50.11 L 514.25 50.11 L 515.35 50.11 L 516.44 57.85 L 517.53 57.85 L 518.62 57.85 L 519.71 57.85 L 520.80 57.85 L 521.89 57.85 L 522.98 57.85 L 524.07 57.89 L 525.17 57.89 L 526.26 57.89 L 527.35 57.89 L 528.44 57.89 L 529.53 57.89 L 530.62 57.89 L 531.71 57.89 L 532.80 57.89 L 533.89 57.89 L 534.98 57.89 L 536.08 57.76 L 537.17 57.76 L 538.26 57.76 L 539.35 57.76 L 540.44 57.76 L 541.53 57.76 L 542.62 57.76 L 543.71 57.76 L 544.80 57.76 L 545.90 57.76 L 546.99 57.76 L 548.08 57.76 L 549.17 57.76 L 550.26 57.76 L 551.35 57.76 L 552.44 57.76 L 553.53 57.76 L 554.62 57.76 L 555.72 57.76 L 556.81 57.76 L 557.90 57.76 L 558.99 57.76 L 560.08 57.76 L 561.17 57.76 L 562.26 57.76 L 563.35 57.76 L 564.44 57.76 L 565.54 57.76 L 566.63 57.76 L 567.72 57.76 L 568.81 57.76 L 569.90 57.76 L 570.99 57.76 L 572.08 57.76 L 573.17 57.76 L 574.26 57.76 L 575.36 57.76 L 576.45 57.76 L 577.54 57.76 L 578.63 57.76 L 579.72 57.76 L 580.81 57.76 L 581.90 57.76 L 582.99 57.76 L 584.08 57.76 L 585.18 57.76 L 586.27 57.76 L 587.36 57.76 L 588.45 57.77 L 589.54 57.77 L 590.63 57.77 L 591.72 57.77 L 592.81 57.77 L 593.90 57.77 L 594.99 57.77 L 596.09 57.77 L 597.18 57.77 L 598.27 57.77 L 599.36 57.77 L 600.45 57.77 L 601.54 57.77 L 602.63 57.77 L 603.72 57.77 L 604.81 57.77 L 605.91 57.77 L 607.00 57.77 L 608.09 57.72 L 609.18 57.72 L 610.27 57.72 L 611.36 57.72 L 612.45 57.72 L 613.54 57.72 L 614.63 57.72 L 615.73 57.72 L 616.82 57.72 L 617.91 57.72 L 619.00 57.72 L 620.09 57.72 L 621.18 57.72 L 622.27 57.72 L 623.36 57.72 L 624.45 57.72 L 625.55 57.72 L 626.64 57.72 L 627.73 57.72 L 628.82 57.72 L 629.91 57.72 L 631.00 57.72 L 632.09 57.72 L 633.18 57.72 L 634.27 57.72 L 635.37 57.72 L 636.46 57.72 L 637.55 57.72 L 638.64 57.72 L 639.73 57.72 L 640.82 57.72 L 641.91 57.72 L 643.00 57.72 L 644.09 57.72 L 645.19 57.72 L 646.28 57.72 L 647.37 57.72 L 648.46 57.72 L 649.55 57.72 L 650.64 57.72 L 651.73 57.72 L 652.82 57.72 L 653.91 57.72 L 655.01 57.72 L 656.10 57.72 L 657.19 57.72 L 658.28 57.72 L 659.37 57.72 L 660.46 57.72 L 661.55 57.72 L 662.64 57.72 L 663.73 57.72 L 664.82 57.72 L 665.92 57.72 L 667.01 57.72 L 668.10 57.72 L 669.19 57.72 L 670.28 57.72 L 671.37 57.72 L 672.46 57.72 L 673.55 57.72 L 674.64 57.72 L 675.74 57.72 L 676.83 57.72 L 677.92 57.72 L 679.01 57.72 L 680.10 57.72 L 681.19 57.72 L 682.28 57.72 L 683.37 57.72 L 684.46 57.72 L 685.56 57.72 L 686.65 57.72 L 687.74 57.72 L 688.83 57.72 L 689.92 57.72 L 691.01 57.72 L 692.10 57.72 L 693.19 57.72 L 694.28 57.72 L 695.38 57.72 L 696.47 57.72 L 697.56 57.72 L 698.65 57.72 L 699.74 57.72 L 700.83 57.72 L 701.92 57.72 L 703.01 57.72 L 704.10 57.72 L 705.20 57.72 L 706.29 57.72 L 707.38 57.72 L 708.47 57.72 L 709.56 57.72 L 710.65 57.72 L 711.74 57.72 L 712.83 57.72 L 713.92 57.72 L 715.02 57.72 L 716.11 57.72 L 717.20 57.72 L 718.29 57.72 L 719.38 57.72 L 720.47 57.72 L 721.56 57.72 L 722.65 57.72 L 723.74 57.72 L 724.83 57.72 L 725.93 57.72 L 727.02 57.72 L 728.11 57.72 L 729.20 57.72 L 730.29 57.72 L 731.38 57.72 L 732.47 57.72 L 733.56 57.72 L 734.65 57.72 L 735.75 57.72 L 736.84 57.72 L 737.93 57.72 L 739.02 57.72 L 740.11 57.72 L 741.20 57.72 L 742.29 57.72 L 743.38 57.72 L 744.47 57.72 L 745.57 57.72 L 746.66 57.72 L 747.75 57.72 L 748.84 57.72 L 749.93 57.72 L 751.02 57.72 L 752.11 57.72 L 753.20 57.72 L 754.29 57.72 L 755.39 57.72 L 756.48 57.72 L 757.57 57.72 L 758.66 57.72 L 759.75 57.72 L 760.84 57.72 L 761.93 57.72 L 763.02 57.72 L 764.11 57.72 L 765.21 57.72 L 766.30 57.72 L 767.39 57.72 L 768.48 57.72 L 769.57 57.72 L 770.66 57.72 L 771.75 57.72 L 772.84 57.72 L 773.93 57.72 L 775.03 57.72 L 776.12 57.72 L 777.21 57.72 L 778.30 57.72 L 779.39 57.72 L 780.48 57.72 L 781.57 57.72 L 782.66 57.72 L 783.75 57.72 L 784.84 57.72 L 785.94 57.72 L 787.03 57.72 L 788.12 57.72 L 789.21 57.72 L 790.30 57.72 L 791.39 57.72 L 792.48 57.72 L 793.57 57.72 L 794.66 57.72 L 795.76 57.72 L 796.85 57.72 L 797.94 57.72 L 799.03 57.72 L 800.12 57.72 L 801.21 57.72 L 802.30 57.72 L 803.39 57.72 L 804.48 57.72 L 805.58 57.72 L 806.67 57.72 L 807.76 57.72 L 808.85 57.72 L 809.94 57.72 L 811.03 57.72 L 812.12 57.72 L 813.21 57.72 L 814.30 57.72 L 815.40 57.72 L 816.49 57.72 L 817.58 57.72 L 818.67 57.72 L 819.76 57.72 L 820.85 57.72 L 821.94 57.72 L 823.03 57.72 L 824.12 57.72 L 825.22 57.72 L 826.31 57.72 L 827.40 57.72 L 828.49 57.72 L 829.58 57.72 L 830.67 57.72 L 831.76 57.72 L 832.85 57.72 L 833.94 57.72 L 835.04 57.72 L 836.13 57.72 L 837.22 57.72 L 838.31 57.72 L 839.40 57.72 L 840.49 57.72 L 841.58 57.72 L 842.67 57.72 L 843.76 57.72 L 844.85 57.72 L 845.95 57.72 L 847.04 57.77 L 848.13 57.77 L 849.22 57.77 L 850.31 57.77 L 851.40 57.77 L 852.49 57.77 L 853.58 57.77 L 854.67 57.77 L 855.77 57.77 L 856.86 57.77 L 857.95 57.77 L 859.04 57.77 L 860.13 57.77 L 861.22 57.77 L 862.31 57.77 L 863.40 57.77 L 864.49 57.77 L 865.59 57.77 L 866.68 57.77 L 867.77 57.77 L 868.86 57.77 L 869.95 57.77 L 871.04 57.77 L 872.13 57.77 L 873.22 57.77 L 874.31 57.77 L 875.41 57.77 L 876.50 57.77 L 877.59 57.77 L 878.68 57.77 L 879.77 57.77 L 880.86 57.77 L 881.95 57.77 L 883.04 57.77 L 884.13 57.77 L 885.23 57.77 L 886.32 57.77 L 887.41 57.77 L 888.50 57.77 L 889.59 57.77 L 890.68 57.77 L 891.77 57.77 L 892.86 57.77 L 893.95 57.77 L 895.05 57.77 L 896.14 57.77 L 897.23 57.77 L 898.32 57.77 L 899.41 57.77 L 900.50 57.77 L 901.59 57.77 L 902.68 57.77 L 903.77 57.77 L 904.86 57.77 L 905.96 57.77 L 907.05 57.77 L 908.14 57.77 L 909.23 57.77 L 910.32 57.77 L 911.41 57.77 L 912.50 57.77 L 913.59 57.77 L 914.68 57.77 L 915.78 57.77 L 916.87 57.77 L 917.96 57.77 L 919.05 57.77 L 920.14 57.77 L 921.23 57.77 L 922.32 57.77 L 923.41 57.77 L 924.50 57.77 L 925.60 57.77 L 926.69 57.77 L 927.78 57.77 L 928.87 57.77 L 929.96 57.77 L 931.05 57.77 L 932.14 57.77 L 933.23 57.77 L 934.32 57.77 L 935.42 57.77 L 936.51 57.77 L 937.60 57.77 L 938.69 57.77 L 939.78 57.77 L 940.87 57.77 L 941.96 57.77 L 943.05 57.77 L 944.14 57.77 L 945.24 57.77 L 946.33 57.77 L 947.42 57.77 L 948.51 57.77 L 949.60 57.77 L 950.69 57.77 L 951.78 57.77 L 952.87 57.77 L 953.96 57.77 L 955.06 57.77 L 956.15 57.77 L 957.24 57.77 L 958.33 57.77 L 959.42 57.77 L 960.51 57.77 L 961.60 57.77 L 962.69 57.77 L 963.78 57.77 L 964.87 57.77 L 965.97 57.77 L 967.06 57.77 L 968.15 57.77 L 969.24 57.77 L 970.33 57.77 L 971.42 57.77 L 972.51 57.77 L 973.60 57.77 L 974.69 57.77 L 975.79 57.77 L 976.88 57.77 L 977.97 57.77 L 979.06 57.77 L 980.15 57.77 L 981.24 57.77 L 982.33 57.77 L 983.42 57.77 L 984.51 57.77 L 985.61 57.77 L 986.70 57.77 L 987.79 57.77 L 988.88 57.77 L 989.97 57.77 L 991.06 57.77 L 992.15 57.77 L 993.24 57.77 L 994.33 57.77 L 995.43 57.77 L 996.52 57.77 L 997.61 57.77 L 998.70 57.77 L 999.79 57.77 L 1000.88 57.76 L 1001.97 57.76 L 1003.06 57.76 L 1004.15 57.76 L 1005.25 57.76 L 1006.34 57.76 L 1007.43 57.76 L 1008.52 57.76 L 1009.61 57.76 L 1010.70 57.76 L 1011.79 57.76 L 1012.88 57.76 L 1013.97 57.76 L 1015.07 57.76 L 1016.16 57.76 L 1017.25 57.76 L 1018.34 57.76 L 1019.43 57.76 L 1020.52 57.76 L 1021.61 57.76 L 1022.70 57.76 L 1023.79 57.76 L 1024.88 57.76 L 1025.98 57.76 L 1027.07 57.76 L 1028.16 57.76 L 1029.25 57.76 L 1030.34 57.76 L 1031.43 57.76 L 1032.52 57.76 L 1033.61 57.76 L 1034.70 57.76 L 1035.80 57.76 L 1036.89 57.76 L 1037.98 57.76 L 1039.07 57.76 L 1040.16 57.76 L 1041.25 57.76 L 1042.34 57.76 L 1043.43 57.76 L 1044.52 57.76 L 1045.62 57.76 L 1046.71 57.76 L 1047.80 57.76 L 1048.89 57.76 L 1049.98 57.76 L 1051.07 57.76 L 1052.16 57.76 L 1053.25 57.76 L 1054.34 57.76 L 1055.44 57.76 L 1056.53 57.76 L 1057.62 57.76 L 1058.71 57.76 L 1059.80 57.76 L 1060.89 57.76 L 1061.98 57.76 L 1063.07 57.76 L 1064.16 57.76 L 1065.26 57.76 L 1066.35 57.76 L 1067.44 57.76 L 1068.53 57.76 L 1069.62 57.76 L 1070.71 57.76 L 1071.80 57.76 L 1072.89 57.76 L 1073.98 57.76 L 1075.08 57.76 L 1076.17 57.76 L 1077.26 57.76 L 1078.35 57.76 L 1079.44 57.76 L 1080.53 57.76 L 1081.62 57.76 L 1082.71 57.76 L 1083.80 57.76 L 1084.89 57.76 L 1085.99 57.76 L 1087.08 57.76 L 1088.17 57.76 L 1089.26 57.76 L 1090.35 57.76 L 1091.44 57.76 L 1092.53 57.76 L 1093.62 57.76 L 1094.71 57.76 L 1095.81 57.76 L 1096.90 57.76 L 1097.99 57.76 L 1099.08 57.76 L 1100.17 57.76 L 1101.26 57.76 L 1102.35 57.76 L 1103.44 57.76 L 1104.53 57.76 L 1105.63 57.76 L 1106.72 57.76 L 1107.81 57.76 L 1108.90 57.76 L 1109.99 57.76 L 1111.08 57.76 L 1112.17 57.76 L 1113.26 57.76 L 1114.35 57.76 L 1115.45 57.76 L 1116.54 57.76 L 1117.63 57.76 L 1118.72 57.76 L 1119.81 57.76 L 1120.90 57.76 L 1121.99 57.76 L 1123.08 57.76 L 1124.17 57.76 L 1125.27 57.76 L 1126.36 57.67 L 1127.45 57.67 L 1128.54 57.67 L 1129.63 57.67 L 1130.72 57.67 L 1131.81 57.67 L 1132.90 57.67 L 1133.99 57.67 L 1135.09 57.67 L 1136.18 57.67 L 1137.27 57.67 L 1138.36 57.67 L 1139.45 57.67 L 1140.54 57.67 L 1141.63 57.67 L 1142.72 57.67 L 1143.81 57.67 L 1144.90 57.67 L 1146.00 57.67 L 1147.09 57.67 L 1148.18 57.67 L 1149.27 57.67 L 1150.36 57.67 L 1151.45 57.67 L 1152.54 57.67 L 1153.63 57.67 L 1154.72 57.67 L 1155.82 57.67 L 1156.91 57.67 L 1158.00 57.67 L 1159.09 57.67 L 1160.18 57.67 L 1161.27 57.67 L 1162.36 57.67 L 1163.45 57.67 L 1164.54 57.67 L 1165.64 57.67 L 1166.73 57.67 L 1167.82 57.67 L 1168.91 57.67 L 1170.00 57.67" fill="none" stroke="#1f77b4" stroke-width="2"/>
<rect x="90" y="50" width="14" height="3" fill="#1f77b4"/>
<text x="110" y="53" font-size="12" font-family="Arial">random</text>
<text x="625.0" y="696" text-anchor="middle" font-size="14" font-family="Arial">Samples</text>
<text x="18" y="350.0" text-anchor="middle" font-size="14" font-family="Arial" transform="rotate(-90 18 350.0)">Hypervolume</text>
</svg>